<mxfile host="app.diagrams.net" modified="2022-09-26T02:23:53.632Z" agent="5.0 (Windows NT 10.0; Win64; x64) AppleWebKit/537.36 (KHTML, like Gecko) Chrome/105.0.0.0 Safari/537.36" etag="S06hcksQfdWn-AsMFQzu" version="20.2.8" type="github">
  <diagram id="jzl4xcIuk8wNe75Q2RIP" name="第 1 页">
    <mxGraphModel dx="1422" dy="882" grid="1" gridSize="10" guides="1" tooltips="1" connect="1" arrows="1" fold="1" page="1" pageScale="1" pageWidth="827" pageHeight="1169" math="0" shadow="0">
      <root>
        <mxCell id="0" />
        <mxCell id="1" parent="0" />
        <mxCell id="HZPbMIjPk6rG7j14ESul-6" value="" style="group" parent="1" vertex="1" connectable="0">
          <mxGeometry x="50" y="170" width="430" height="560" as="geometry" />
        </mxCell>
        <mxCell id="HZPbMIjPk6rG7j14ESul-1" value="&lt;div style=&quot;text-align: justify;&quot;&gt;&lt;br&gt;&lt;/div&gt;" style="rounded=0;whiteSpace=wrap;html=1;align=left;" parent="HZPbMIjPk6rG7j14ESul-6" vertex="1">
          <mxGeometry width="430" height="560" as="geometry" />
        </mxCell>
        <mxCell id="HZPbMIjPk6rG7j14ESul-2" value="&lt;font style=&quot;font-size: 24px;&quot;&gt;数据源&lt;/font&gt;" style="text;html=1;strokeColor=none;fillColor=none;align=center;verticalAlign=middle;whiteSpace=wrap;rounded=0;" parent="HZPbMIjPk6rG7j14ESul-6" vertex="1">
          <mxGeometry y="10" width="110" height="20" as="geometry" />
        </mxCell>
        <mxCell id="HZPbMIjPk6rG7j14ESul-5" value="" style="shape=image;verticalLabelPosition=bottom;labelBackgroundColor=default;verticalAlign=top;aspect=fixed;imageAspect=0;image=data:image/png,iVBORw0KGgoAAAANSUhEUgAAAmoAAAOZCAYAAACuowx8AAAgAElEQVR4nOzdd3gUdeLH8fdsSXbTE0hCICRIQi8C0lSUYhdRFEQ9FSxnAeHOUxAOPXvjZ73zrGc5UE9FUBSxIiCi9C5ICWiAECCQDWm72Ta/P0JWQhIQBbLg5/U8eZ5zZ3bmO3v7ZT/zbWOYpmkiIiIiImHHUt8FEBEREZHaKaiJiIiIhCkFNREREZEwpaAmIiIiEqYU1ERERETClIKaiIiISJhSUBMREREJUwpqIiIiImFKQU1EREQkTCmoiYiIiIQpBTURERGRMKWgJiIiIhKmFNREREREwpSCmoiIiEiYUlATERERCVMKaiIiIiJhSkFNREREJEwpqImIiIiEKQU1ERERkTCloCYiIiISphTURERERMKUgpqIiIhImFJQExEREQlTCmoiIiIiYUpBTURERCRMndBBLSdnE0Ou+BM5OZsO+tqhPPX0sySnNqFPv3PIydnEokWLSU5tUuNv9JixPPDgwzz19LMsWrQ4tH9OziZuvmVE6LU538xl9JixLFq0OHSsRYsWVzvnlKkfMHrMWApdLkaPGVvr+Wp73/7vT05twpSpH/y2D09ERETq3Qkd1FasXMnsOd/w55tvJSdnE4UuF+PvuZfZc77ho4+nh/bLydlEn37n1BmGpn8yg/nfzWXOrK/Izs6ie/duzJg+jXbt2jL/u7mMGzuGYUOv4eGHHiAmJqZGOaKiogBYt349AEuXLmPJ0mWUu918O+87+vbtQ3aL7INey7ixYyjYmRf6m//dXNq1awuAx+OpEeaGjxgFwPARo6q9/tTTzx6Rz1ZERESOPlt9F+BoyMnZxJ9vvpU1a9YCsGbNWk49/cxq+zw+4QmmfzKDV195iezsLObM+gqPx8M9/7iPiZPeCgUvh8NBocvFo48+zvjx40hKTDzs8nw/fz4fTvuID6d9FCoPwJYtW5j+yQzWrFlLq9btARg29BqSk5N58qlnACguLgFg4qS3eHzCEwc9z7ixY7jzjttD1wGErkFERESOPydkUKsKXlV+TXApdLm4dfhIZs+ew4svPMfgQZfVeH3I5YPp3r0bTz39bCg07R8At2zdRkbTdNLS0qode/Cgy+h08smh8Dhj+rTQcar+OykpiT/ffGvoHFlZzVmwYCHjx4/j0UcfD4WwRYsWc9e48aGAWXV9APn5+Qy58mpmz54TOvfESW9VK0vVuUVERCT8hXVQmzhxIvPmzQOgV69eDBs27Kid6403JoYCzvARo0Jdh1AZbia/+3bov28bcSv5+flAZfB7/oWXyM/PD/3vA+XkbGL83f9g7F2jmfB/T9J/wMAa+xQWFgKQlJRUa/ken/BEtRa1qoA4bOg13HP33wFIS0tj/Phx3Dp8JD26d+POO24/rM9AREREwkvYjlGbOHEiM2fOxOPx4PF4mDlzJhMnTvxV760a/F/11zQzi4mT3mLipLdomplV65itO++4nYKdeWzN3cSwodcA8OILz1GwM49v531XbWzXtm15LFm6jJ49e9RonbvzjttrBKSZX8/i0UceokV25Ti0GdOn8f7kd3jqyQn07dObLVu3smXrVlJSUkhq8EtQmzjpLcaNu5vi4pJQWfYfG1ewM48nn5hQrQyzZs1m9uw5nNHr9DonKoiIiMjxIWyDWlVL2qFeq01V6Kr6mzF9WmjbjOnTqm2rClVVsySbZmaRlpZGwc48Bg+6jEKXi9LSUh6f8ARDrryaQpcLgJYtWtCvX9/QcSdOeot7/nEf27dXdj/2HzCQrqd0IT29CbfechNJDZIYf8+9jLxtON27d6NP7zM5/bTT6NevLwsWLGTNmrX06N6NKKeT0WPGMnzEKIYNvYb77/sHRXv38sUXX5Gc2oT+AwaGxtxVzSotd7vZsnUbALm5WwDoP2BgqOWu/4CB1WatioiIyPEhrLs+j4RCl4snn36WcWPHADD5/Sl07NihWiuUx+NhwYKFof8+sJuxyuzZc3jjjYncecftvPLyC6HX9+8KTUpKrNZNClQb0zZ79hyGjxhFu3ZtefWVlzj7rH68+95kAF595SUcDgdPPjGBnj17sGDBwsouUdPkjDNOZ2NOTmhsWtVYtf1lZmYweNBlofC5aNFi+g8YqHFpIiIix6mwDWq9evVi5syZNV47HB6Ph0cffRyA66+vHN926/CRPP/CS9W6J/cPR1A5+P+pp59l4aLFPPv0kzz9zLP07NkjNMFg/9mhB9r/taqZo9dfP4yFixYz5PJBXNT/wtDEhvT0JgB0PaULEye9tW+cWla14y1bvpyMjKZkZGTUeZ2FewrZtWsXublbSE5tUmP7/mPi9p/NKiIiIuEtbLs+hw0bxtlnn43D4cDhcHD22Wcf1mSCRYsW0zQziy1bt/HSi/8mKTGRpMREXnrx35Whab9uTKhs9Ro+YhST359a7XWAIZcP5t/Pv8joMWPxeDyhYFfVfVo1rm3Y0GvYmrsp9HrV+DFXoYvRd9zOv59/kaaZWSxZuoxbb7kZh8PB8y+8RHFxCZcOvIS7xo2v1jVZXFzCvHnf07NnD6KczlCXZ1UXaJUVK1eSkpLC9dcPq7XLd//u3gPHtImIiEj4CtsWNagMa79lpmdVV+P+y2xUSUqs7JqcMvUDWrVuH+oSXbhoMevX/UDOxpxqa5olJSXSuHEan386nXv+cV9oVmdda5od2Mp24Lpo709+h08+mRGatTlu7BheefmFUCtd1UK8j094IrQkB1QGz6ru0gO7PnNzt9Cje7fftMabiIiIhC/DNE2zvgshIiIiIjWFbdeniIiIyB+dgpqIiIhImFJQExEREQlTCmoiIiIiYUpBTURERCRMKaiJiIiIhCkFNREREZEwpaAmIiIiEqYU1ERERETCVNg+QqqkrAJXsZtAIFjfRZEwYrVaSIxzEhsdWd9FqVeqH1Ib1Y9Kqh9Sm+O1foRtUHMVu0mMi8Jut9Z3USSM+HwBXMXlx11FO9JUP6Q2qh+VVD+kNsdr/Qjbrs9AIKhKJjXY7VbdJaP6IbVT/aik+iG1OV7rR9gGNREREZE/OgU1ERERkTCloCYiIiISphTURERERMKUgpqIiIhImFJQExEREQlTCmoiIiIiYUpBTURERCRMKaiJiIiIhCkFNREREZEwFbbP+pTD978FP/LoJ/OxWgxOahjPjWd25IyW6SREOeq7aCK/i+mpwF/owrtuI55Fyymf/T2NXpyAvXlmfRdN5JjwB4IUl3vYXVROXsFeXCVuDCAu2kGjBnEkxTmIiozA6bDj9wfZvbeU1Zt2squoBKthEB/jJCUxBkeEnXVbdrEqJ5+f8l0Ul3nwB4IEMYm02mjaKJ6urdI5tV0zMlLjiY6KwGIY9X35f2gKaieQqUvX0715Gn87txvzNm7ljndn0bVZIy7v1hp/IEBSTBRtGzcgLT4G1Ts5HpiBAJ4Fy3CvWI3h82FvlkHiLUNxdO1EsKS0vosnctSZpsmuolK+WrSR+T9socLvp0nDeBJjnFgsUOEL4CrNwev1ExMVSYP4GErKPKzYuJ20BrGkNYwl0m5np6uMpRu24/MHaNIwnm5tmnJmp+ZYLQamWRkES90e8gpKWLh2K5Nnr6Zzi8ZcemY7TmnVBLtNz06tL4ZpmmZ9F6I2P20rJC0lvr6LcVz58oefuPGNz/j0b0PokN4QV5mHmyd+zvp8F8WeCsorfFitBpd0bsHIs06hZWoiEcdh5cvftZeT0pPquxj16o9QPwI7d7Hr7sfwbcsnps9pRPXtRURWJkZiAkG3hx23jKbJ2y/WdzHDjurHiVU/drlKeea9b3GVuLnuwq40iI/G7fFRVOrGXeElwm4nymnHYbNhs1rYvH0P2/eU0r1NOo4IG65SN6XlXiwWiHZG0iAuisxGCZSUV/DCB/PZtnsvBhBhs9E0NYHOLRrTNCWBMo+XiZ8tYduuYv56+en07ty8vj+KI+J4rB8KaieQYreXUW9/xYYdLqaOvITGCbF4/QH2eir4uaCYDTsK+Wj5Br7dsI1Iu41rTm3H+P49iYq013fRD8vxWNGOtBO9fng3/UT+0FFEn9+P6LPOwN44lYrNuZTNmIV/x07sWc0o+WAGmTMnY22UWt/FDSuqHydO/TBNeOzN2ewsLObOP/VmQ24Bz7w3j8KS8lr3b944iWf/ejERNisvTpvPR9+urbGPYUCrjGRGXHoaTZJjeeJ/c1n84zYCwWBoH2eknVGDTqNPlyz+O2MJny5Yx5v3XUmjxNijdq3HyvFYP6z333///fVdiNoUFbuJjdbYqsMRabdyQYfmvDp3JVGRNrqdlIYvYPLo9PmkJUYzsHMLhnRvQ68W6Xy3cRtfrfmJr9b+zEUnZx9XYa20rILEOGd9F6Nenej1o/z7JVSsXkfSqBuxxERRNnchjk7tiLtyINEXnoU9KQFr41T2PPIMcVcPxrBoXlQV1Y8Tp34s27idyV+vYvhlpzJn2Wb+NfU7yit8te5rGAY92mVwcos0Hnz9a+Ys31zncXfvLeezBespLq9gYO/2WA2Djdv2hLb7A0Hm/7CF3XvLuaxPR3J3FLIqZwe9OzXHOM7HzRyP9UNB7QRjs1pondaAdxf8yJDubbBZLcQ7Ivl4RQ792mRgtVhIT4pl0CmtKPP6+OKHn1ibt5vzOjQn0n58dIMejxXtSDvR60dERjoYUPT8G9gap1LyzoeUfjaLYNFeyqZ/BZF2Yi8+H7O8HP+WPCI7tKnvIocN1Y8Tp35MeHM2bU5KITUxhv9+tpRyT+0hDSAuxsFjt5zP21+s4OulOfyarrKf8l3s2FPMkH4n4/b6yd1RGNpmAtsKiomLiqRHuwymzFnN+T1aEu2I+P0XVo+Ox/qhyQQnoJaNkli/s4jtRSU0Toile1YanZulYrf+0uqQGO3g8cG9iXM6ePqLRQz9zydMuW0gNqtaJqT+GY5I4q4ehLVRCqWTPyb+lmuJaNEcS5SDvW9OofDfr7PzzvsxAFuTRhgRdpynnoIlPh7D6VALmxz3CkvKWbe1gBv6d2POis0UFtfe3QmV3Zl3XnEGvkCQad+u+VUhDSAQCLJiw3be/Wo5D950Hlt3usjZr2XN4/Xx7aqfuKBnK/z+IFt27SU5IeZ3XpkcLv1rdgJKjo3igg4nMfb9b/AHKscd2GsJYIZhcNcF3bmuV3vmbdzG87OWhfYXqW+G1Ur0Ob1x9OiCZ8kqyqZ/ia1pOgnXX0nCsCto+sEbODq3J/WJ+3B/t5j8m0az7eJr2dpvEAX3P0nZ19/iXrgc/46dEAjU9+WIHJbdrnLsViuZjRLI21V00H1TE2Np0bQhb8xYetj/hpvAvNW5TPt2DXf9qQ8JMdVbm0rKKgCTaEcEpWUVh3kVciQoqJ2ArBaDW/p24uu1ucz8Mfeg+9qtFh64pBdZyQn8a+ZSNhcc/B8EkWPJMAziLutPcE8hrhf+i3flWlwvTsLZvQuO7p0haOI881RSnn6AtP88SfRZZxA39HIMi4WKlWsomfoJBeMeYdf4xyj9fBYEdSMixwd3hZfEGAcV/gC79pbVuZ9hwJmdmpMUG8Wn3//4m8/33JTv8fj89DslC4vll3FojggbVqsFnz8Ax/fwtOOWgtoJKis5gXEX9uDZLxdT7D74XVCMI4K3bx2A1TAYP+Ub3D7/MSqlyKFZGiSS+NebsMTHkX/raOKHDiayY+WYNOdpp2D6fBQ+9k923vZ3YvqfS2TbVsT2P5ukv91Cw/tH0+Dvf8HZozN77p3A1gv+ROnnszAV2CTsGdhsBoFAEE9F3S3CVouFJslxFJaUE/yNizg0aRjPxWe0o7jETacWjYndb5H05MQYvP4AFX4/cc7I33R8+X00Ru0EdlPvTjzz1RJc5RWHrGDZKYnc2rcTj36ygPcWruO6Xu2PUSlFDi2iRXOcPTpT8tEX5A26kYjWLYkbOpiAq5jtV4/A2fVkGr/7CkaEnb1vTsGWlkKkYYDViiUhDkendiTcdC2uN95hx613EXfZRSTdNQJbajJa/VnCkSPChqcigGGA5SBfUYvFgtViYdmG7dx0cTd6d8omMsJKZISNLflFjHvpU0rd3lrfm5oUy51XnUH7kxphMQyCZpBN2wurTSxrkhxHXkExFotBw8ToI32Z8isoqJ3ANu50ARD/K2fpXNQpm9fmrua/362i/8knkRyrSinho8H4v+LbvIX06ZPwrPqRHdffju/nLUS0ysJ5ald8eduxxsYSdLmwZDWj+L2PCJaW4ft5K9aEWGIGnAeOSGwZTfBt2MzO28YRP/Ryos/vhxGplgIJL9FREZSUV/aGRDnr/qmuXArVpFeHZny3OpeXp80nJtpBjCOCMzs357r+XXl+6nxqWzL1wlNbE2GzMXXOamKiIlnwwxbO79kSr7+yBc9utdCsUSLrc3eREO2kUdLxv47a8UhdnyewF2Yv4+T0ZBwRvy6Pt0hJon/HLNblFzJr7ZajXDqRw2NNaUjQ5cIMBHF/u4DEUTcQ0b4VDe+9E/fc+eRfO5Ido8az9/V3KZ/7PUaUE0e3zjQYO5KkO4ZT8eNGgoUunD27kvDnq0l+5O+4F62g+J0PMb21tziI1Jf4aAe+QJCCwjKSDnLTbFA5IWD28s088963LNu4nYyUeEzT5Lkp88hISSDaUfs6mb07Neen7Xv4bvXPzFqaA6ZJhddfOR4NSEmMpXVGCitzdnBah0w9RqqeKKidwJbn7qJZcgJ2qxWPz8+ukroHpEJlD9A/LjmNqEgbz329NHRXJRIODJsN0xeg+LW3K1vGkhJIm/QcMZecT6NXniRQWEzpx19gxEQRc/H5xA44F0fHNlhiovH9vIXd4x8j/uahWCIjwDCIaN2CpLEj8a7fhGf5D/V9eSLVxEZFkpwQxYZtBTSIj6pzv6BpEjRNjH3P6yxze3n5o4VMmbMaV7GH9JR4mqYm1PrewpIybDYrm/MKWb1pB7HRkXj9AQL7Zo6mJkVjtVrYumsv53RreVSuUw5NQe0EZpomUXY7hgFfrfmZa/8zI3SnVJdYRwTD+3RmXX4hn66qe2VrkWMt6KnAt2MXQZ+PhKsHUfjKm+DxsXfSZPJvuYvAnj2kvTiBmP7nsPuRZ/Hm/ASAL3crhc/+h/QZb2JxOjB9PgK7CqhYsx7v2o1EnX0mpdM+V6uahJ1ubTLYtL2Q5PjoOodSVj0poMJf+ySwxJgoEupY/HfW0k2kJsUSG1XZ9R8b5Qidx2Ix6No6nU15u0lOiKJNs+TfdzHymymoncBaNkoKPb/thdnLWfpTPp//8FOtYxX2N7BLC5o1jOe5r5ew9xAzRkWOFc+SFdhSkvHlF+B6/g3M4hLKv1uItUEStpSGNBg3irihQ0i8/WbiLjmfgnsep2LNevZOmkJEqyzK58xn9yPPsPvBpyn+3we4Fy7Dv2UrmCaxg/prJqiEnVNaNyF3h4vGDePqfCKAYRhYDQNXsafW7SbBOmeDrvt5F80aJdC8ceWzL0vcFUTYKpfjsNusnNq+GStz8jmve0ssmnRTbzSZ4AQ25vzuPDZjAb5AkM07i+jevDFPfLaQ7s3TSI2re8xDi9QkHry0F7dM/IJh/5lB12Zp/LlPRxod5D0iR1UwSNHLk0j/4n8U/P1R3F/NJeWFx3F06UDptM+wpaWScOswMAwsUU6iLz4X/85dbLv0eoIlJTg6tSfm3N5E9+mFPSsDS3Q0RkQE2KwYVo27kfDUrlkKuwpLcUbaadQgttpTA6pYjMpHB7pKa39yQWGxB1dp7SFuR2Epyzdsp1PLxixZv43de8swDAOLxcI5nbMIBIK4Stx0bZN+RK9LDo9a1E5gbRo3JH9vKctzdxIwTCZc3octhSW8u+jQiyJe2DGLdY/eRLeTGvHynOV0uvcNXpy9XOPWpF5UrN1A1OndcH+zAO+adRjx0djSUvD9uBHP/CXEXnUJ/u07KJnxFbtuv5ftg26kYs16Uv/vH5y0fCZNP/0fiX+7Fefp3bA1SsUSG4MRGaGQJmEtMTaKpikJFOwtIym29udTWvYFq9oazSLtVvIKisjbtbfW95a6K/j+h1zO6d6CxJgovL7K8WmxzgiGXdCFVZvyaZOZQkqiZnvWJ7WoncAibBaeufIs/vK/r2idmkh6QgyPXnYmd384l7aNG3JO22YHfX90pJ27B5zGXRf25MOlG/jv96v5YOkGHrr0DHpmNT5GVyF/dMHSMva+OQXD6aD8m4U0vPtvGLExBPe42H3v/xHRvjV7X3kbfD7MgB9/YRGNXnsaW6NUrZEmx70e7ZqyY08prTNTWbIur0Y3ZiBoEggEyWwUX+O9g/q0p9Ttw+2t+2Hui3/cyvqfW3BD/658vWwTFovBhae2Ji7awfKN27mhf7dq66rJsacWtRNcl2apzLrrKqaOvIzEGCdX9mzDXRf2YMy7s8ndU/td1oHsVgtDurfmo1GDuKRzNpe/MI25G7cd5ZKLVKpYuQZLTDRmcQkN//E3onqfhnfdRnYMH4N7wRIqVq0hduAFJI3/Cwm33YA9uQHWBg0U0uSE0P6kNDZs2UXbZinYanlms9cfYHdxGb07ZdfYdkHP1ixcu4VgsO5xyeUeH//9dDHndm/BkH4diYuKpG+XbN6ZuYqWTRvSIr3BEb0eOXwKan8AETYrkfvWv7EYBsP7dOalYecxa20uvkM8wLe0wstb89dw/7TvuOrFj3l7/o9E2m18vGyjukHlqAvs3kPJR58TLCsjqs9plM2cy7bLb8SXk0vaf57GEhdH0ojrKf96LmZZeeWjCA2LJgbICaNxSiwx0ZE4HXaymtYMTaZp8sGcNXh9fi45ox2OCBsWw+CCU1tT4ffz5aINhzzHpu2FTPx8GV1bpdO0USI+f4Bvlm3iirNOxgQqfP7Dfti7HDnq+vyD6pnVmI5Nk7FZDp7VPV4/d747izNbNuW+gafjjLDhtNuIc0YSocUP5Sjy5W5l19/uxberAIvVRsmUT4g+qxdpb/wTe0bl4GZLXCzRl5yP86wzKHn/Y/z5Own6fdQ6YEfkOBTrjKRFegPm/7CFkZeexl+e/Tg0m7+Kq6Scj+at5c4rz6DdSamsy93FsAtOYcuOIhJjo9hb6j7kc0DfnbmCs7u2ID05jsffnkOrzIbMWLAOj8dHhS9AhM3CoN4diIupfakPOXoU1A6Qs8vFczOXkrOriP4dmjOoW6uDzpAMmibzNm7jo+UbWb2tgD/1aMsVPdrgtP/OjzZYAcUrwF+McZAKZkZnQ1RzCHqhaGHl+w4lohHEtScqwg6F30DQB7Y4SOheY9eGsVG8NOw8Hpj2PQ9+/D239u3E6dlNcPze6xM5CO/6HArufpzyxStIuO5KzAovkR4PSXfcQsl7H5F4+82YZeVEn9dn3xt8+LfvpGJ9DtY4DXyWE4fdZqVnm0z+OWUefzrnZPp0ac7XS3Kq7ZPWII5TO2SycetuFq7dwuntM4mPdhAX7eCBP5/DGzMWs3zD9jrPYRgw4rJTSYpzEgyaDO7TgcLicqwWA0dkBDabhf/OWEKXlumc3CLtaF+yHEC/tgcY9fZMFm3OxzRNFm7azruLfmTqqEtJjql9ZejPVm9m+KQvKfVULpa5Jm83XTJT6dg05fcVZOPDWHZ+jBlwc9CRNif9BbPZSIyND2Hs+BAzeKhFOw2wxWO2ewaSTsdYcyf4izFj2kC3j2p9xyWdW5CdksR9H37Lda/O4JTMRjx37dk0TYz7rVcnUiff1jwK7rifipzNZP+8BLOklF3jHyPx5muxZzbFnplO8dsf4N24mcS/3EDpF7MpfORZGt4/mtghF1P0/BuhRUBFTgQtM5NpmBDDv6Z8x+V9OvLdqp/xeCsXuI1y2Ln+wlNold6QQXe/iWExKseVGQYjn5nGbZeeRkajRFZs2E5dt/wJMU6uPKsT97zyBWt/3sWpHTJIjI2msLiUHm0z6NoqHVdJObHReiZufVBQO0BVSIu0W/H6AvyQt5t35q9l1Nlda4xNLqvwMXHeD5R6vETarHgDQdxePz/m7/l9Qc31PUbe/yorVWJPzIb9wKi9udlM7Aq+IoyiRZgBd+WLCV0h4VSw/TKd2/SXVx5373Lw7cHY+hpm0ukY+DHNAARrX9UaKse1dUhvyNSRlzJ34zae+3Ixo96cycvXnXfQ1kaRwxIMUrEuB/f8JUSe0hFro2QMq5WyOd9jejzY0tPAMIg6uze7H/sXe//zVuVDDg2Dxu+8hK1JWuXTCAwD0+DgNzgixxGrxeCG/l257alpnNe9Fdf378rEz5ZS4fVz6Znt6dSyMW99uYyBvdvTp9NJOCPt/OXZjwADm/XQNaFjVhoYkNogFsNi4PH6iYq00PuM9ux0lTDy2Wl0aZEeWhhXji0FtQNUrdrfr00m6/ML2VxQxIzVm7nhzJOJiaz+YNv1+YV8n5OHxTDof3I2n67ahMfn/93DY4w1Y34pT/vnwV77c9pC+/t2Ywb3DeyPysbs+BrYYmrZ70ZY1B8qtkOg9gUQD3oeA3q3TOfU5mm8u/BHZqzczA1ndDjs44gcyPT7cX+/BAyDhOuvpHjyx3iWr8asqGDvO9OIHzYES0IcFSvXUvLBDLw/rCP+yoG4Fy6hwV9vxpq67/E2pgmmqfXR5IRzUloiN17UjRc/nM8tA3ty15/6UFpeQccWaSz+cSs3XdSdD+et4ZPv17H2p53EREUw9k+9ObPTSazavOOgx85Ob4gBpCRGk9U4iV1FpWwrKGHR2u/ZVVTGhae2YnDfjsfmQqUGBbU6ZCTF0TQxjle+WcGK3J2szdtN9+a/9M0HgiZPfbmYcq+P5NhorurZhs9WbQptN024eeLnfLNuK/HOCBbfN6zW83j9Adrf8zoA919yGn86tR2mowGGd1/FMg9zZmVCl1pDGoBpj8NwplcGtd8hwmbl2tPasXJrwe86jggAgQDlc77HmpiA45TKH4PIjm0JvPA6xe98SJBOjEAAACAASURBVLB4L575Syh84nmSbr+ZhJuuxr+rgITbbsCaGI9nwVLy/jScpJE3gLXynzQFNTnRGIbBpWe2w+f389Q7c7n6vM5kNWnAg2/MBKBLq3QGnN4Gf8AkGAxiGPDezNWs3rTjkI0HcdERlFf4+GzBelpnplBS7qFpciIXXdKGtAYxxMc4sKlO1RsFtTrYrFYu7dKCV75ZgS8Q5O4PvuHLO68IjX1Z/FM+X6zejGEYjDm/G/GO6n33pmmyt7yC3aXleIN1hy3ThN37Hv1RUrUoYbvnYOEFlRMDVt1U2Y1p7FdJDAtGTBZmw/PBYj/giIdq5j4yHUKGYdAp43eOwxMBPCvWECwsIvrsMzEDAQI7CyAQwPQH2DFiHFF9TiP2qktp+NBYoHI2qKNLR+zpaVgS4okZdBFR5/TGvz2frQOuI/GvN2oNNTkhWa0Whpx1Mk5HBB/O/YHICDv//OvF5BUU8+y782iSGo8VWL+tgDK3F7vdSrNGSdgPMUPfGWEnN7+Ilk0bMv7avsfmYuRXU1A7iC6ZqZzTNpOv1uay9OedzFm/lb6tM/D6Azw3cylB0yQjKZ4/9z6ZJT8dvGn5sDgzoe2TsPERDPfP4P55v40mRqAcM+iHxlditrxPY3HkuBUsd+N67lVirxxIyfQviWzVnIpVP1L+zXwMIOaic7ClNMSa8MvElYofN2KNi8WSEE9gx07cC5ZhSYzHrPBibRBPdK8e9XdBIkeZ1WJh4BntuLhXWwwqb5qT4qJ45q8D8AcC+PxBMEwibFY+nvcjqzfvOOR9i91mZe3PO4mOrP3B71K/tODtITw6uDexjsov7+RF6/D6g6zfUciy3J1YLQZDT297VM5rplyI2f1TzK7ToOuHoT/zlCmYTW8CwNgxBUvZxqNyfpFjwbd+ExXrc4hocRKRrbKwpqYQfX4/7M3SSfr7X0l9/jFMn5+Cex4nULCbYFk57u+XYETYyR82CveSldizT8LRtRPR5/YBjxdb1sEfjSZyIrAYRrXZzYZRGbiiHHaiIiOwWa2Ulv+6scgRdiurN+eTGFf780SlfimoHULz5ETO63ASAN9u2MY2VzEfLc9hZ3EZcVEOzmpzFH8U7PHgzMB0Zob+iMrCzLy5cnvQD67vqr3FDFR2o+IvwVhxHZZlV2AsGwJllatTm2bty3cYwcOfXCDyewW9XsziUjAMIlpmYY2Po3zhUgyLhZgL+mFLbkjyE/diiY0lb8jNFD7+b4qef53yRctJfep+Yi46l8j2rbFER1Ey+WOM2CisMZqJLAJg29flaWDUuWSNYYDTEUHuziLSUw4+cU3qh4LaIRgGXNQxm0iblR17S3lh1nJenbsSgDNbpNOhaXId7zMw9q1a4/UFWLt9DyUeb42/qvXXqvHurBzwX9ufeyvGltdDu5rRralci6CyElr2fA27KweXmi3uwcQCRcswVt4MW17FKF1fVUIAgtZ9FdOdi7HrU/CXQMBd+5/IEebo2BYjLoai5/9L0LUXf952KhYuI/66K8Hvx7NwGe5vF2I/KR1f3g5Kpn1KzOCLcLRtRcWGnzC9v9SfwmdepsHdf9P4NJF90hrEYZomDeKisNbynFCAhvExxDgi2LGnRMtvhCmNUfsV+rXNJCU2mq2uYv47bzVBs7L//8FLe2E5yF1Kz+zGfLU2F4/Pz3lPvYfTfuDAfzBrWYLQWHQRRh1PGDBNs/IpBACxbSG+M6bVAdYoDCrXSzN+GAW2eAzDihn0VGYyz1aMnAnAvkePxHeqPFf2GFjzt8rZpWvvxNj3vprlBLpOwYzUqtRy5BhOB8kPj6PgHxPY/eDTWBsmENW3F2VfzcWIdoJpYomLxdmtMyUpn5Dy9IPYm6ZRsXYj/p27cM9fAsEg/p278W7bTlTf0+v7kkTCRnZ6A75ctJFOLdJ4f44NXy3PZ26d0ZDdRWWUub2kJNa+YoDULwW1A1zSpQWY0DG9Yei1mEg7b91yEXdPncvGnS4axDj485mdaJr0ywDnBrEOLuqUjdcfIKNB5esj+nYBDNbvKKxzenQgaPLB0vXVX4zrfIgnDFjA2QizyfVg2/e4nJb3Y+ZNwvCXh/aqdsqgB/YurWwZc2ZgNr2hcp/k86F1BeyZhRH01XxftdNqoKkcedF9e2H9Vzw7Ro4jUODC0aEt0Rf0w3A6MKxWgj4fu+9/isRbhuLs3hkAW1oj8PkomToDz+ofcS9ZScKNV2OJ1MrpIlUcETbW/LSDy3q3I9YZSUlZ9QYAZ4Sdrm2asvDHrVzcqy0xTv0bH44M0wzPpxf/tK2QtJT4Y35eXyCIaZpYLQbWAx5YXuz2UlrhJdJqJSE6stp20zTxB01M08RmtYRa2kzTJGj+spDugTw+PxmjXwTgsct7c0vvTvu6GQ/2f4tRGZoOaPkygz4MgrW/xQxg7J6Fse4uzGAAM/lcaP1oZdAzTTD9UNd7q1jC40cwf9deTkr/YzfR11f9OJoCe1wUvfY2ngVLie5/Do5unbA3SaNizXpKpn9J/JUDscTH4tu2He+GzdiSG+Do3B5b40bsGv0ASaNvxZ7RtL4vo96pfpyY9eO3KHN7uf+1rzipcQO6tG7M81O+p6jUg9ViIS4mkrO6ZtGyaQqTPlvCgzedR3L8iT++83isH2pRO4C9jn58gDhnBHF13HEYhoH9gEd1LNy8nY+W5dS6f5Uf8gpC72/WYN8/LNbfNvPGqLGmWnVm6kWY0VlQsQOwVLayEVvZT2sc/L0iR5u1QSIN7hqJb9t2KpasxP39YtyYeBauwL97DyUffY6jQ2siO7XDeWo3LPuWEvAsXUVE2xZYk2sfLyryRxXlsHPNeV146r25+ANBrjmvMzarlShnBDarhW27ipjx3Y8M6t3hDxHSjlcKakfR2rzdvD5v1SH3c0bY6NM6g35tMo9+oWLaVP6JhCl7emPs6Y0xK7wES0qJOac33k25+Db/jHvFGtzfL8USH4slJQl7w4b4C3YT1bMrFmftz8MV+aMyDIP2zVMZe3Uf3vxiGd8s34TFYsFusxATFUGn7CYMveAUTSIIc+r6lOPO8dh0faSpfkhdVD9UP6Rux2P90PIcIiIiImFKQU1EREQkTCmoiYiIiIQpBTURERGRMKWgJiIiIhKmFNREREREwpSCmoiIiEiYUlATERERCVMKaiIiIiJhSkFNREREJEwpqImIiIiEqbANalarBZ8vUN/FkDDj8wWwWsP2a3vMqH5IbVQ/Kql+SG2O1/phq+8C1CUxzomruJxAIFjfRZEwYrVaSIxz1ncx6p3qh9RG9aOS6ofU5nitH4ZpmmZ9F0JEREREajr+2gBFRERE/iAU1ERERETClIKaiIiISJhSUBMREREJUwpqIiIiImFKQU1EREQkTCmoiYiIiIQpBbWjZNGixSSnNmHK1A9q3f7U088y5MqrKXS5DnmsKVM/IDm1CcmpTRg9Ziwej6fGsaq213bOKVM/4Kmnn/3tFyPyKx2r72qhy8WQK68OHWfRosVH9DpEjhSPx8PoMWOrfe/D/d/j/evpgWWt7Xr2r39V21UnjxwFtaOob5/efPnlzBphLCdnE+vWrSchPv6Qx5gy9QMWLFjI1txNFOzMY8jlg1m1ajXwy48VQMHOPAp25rE1dxMLFiwM+38I5MRzrL6rhS4Xtw4fyeg7bg8dZ9369TVCoUg4mTF9Wuj7mp+fX+dN/K/x1NPP/q73H+rY8Es9bdu2DTk5m4DK367zLxxAz549QtvXr/uBJ49ieURB7ajKyGhKkyaNmTVrdrXXV6xcySmndCEuLvaQx8jN3cKQywfjcDgA6N69G927dwNg1qzZ9OjejTvvuD20v8PhYPz4cSxctFh3NHJMHavvauGeQtq1bUPHjh1Cxxl67TWh84qEM4fDwZDLB5Obu6W+i1KDx+OhtLSUSy4eEHrtgvPPIzs7C4CPPp7OyNuGM3jQZaHtSYmJPPrwg0yePCUU6OTIUlA7ynr3PpMFCxaG7vYLXS4WLFjIOWefFdpnytQPanQTVd0xZWZmMPn9KTVaCzweDwsWLOSMXqfXOGdSYiI9undjy9atR+mqRGo6Vt/VpAZJrFn7Y6i17kA5OZvo0++cGt0yOTmbuPmWEbz08n9ITm3CzK9nMeTKq6uFxEWLFoeGJPza4+iGSA7X/t/3A79n+7cw77+tT79zWLNmLaPHjOXxCU8wfMQo+vQ7h5ycTTW6Iye9+RY33zKCQpeLQpeLm28ZwaQ336o23GD/7s2q3x+Hw0FMTAwffTy9RpkLXS7Wr99Ap5NPrrEtPb0JGRlNKSwsPAqfliioHWVVd/1VPyqzZs0mLS2NxKTE0D79+vWluLiEbdvygMrKuX79Bvr168tF/S8EoGlm1mE1LWdmZoTlHZucuI7VdzUpMZHRd9xO/wEDa4zzLHS5eOnlV/hg6uRQt8yrr70RutPfsHEjDRs2oGBnHmef1Y8hlw/i23nfhd7/7bzvGHL5IIBffZyqVkORX6PQ5WLy+1M5o9fp5ORsYvzd/+DVV16q0S3q8Xh46eVX+L/HH6VgZx5zZn1Fu3ZtefKJCYwbO4YXX3iOObO+Ijs7i+dfeIm0tLRQd2RBwW6K9u4NnbNo714KCnZTsDOPwYMuCzUCVO3fs2cPnn/hJQCuv34YC/eNsf61NyEOh4O0tDQ1DhwlCmpHWZTTSc+ePZj8/hS2b8/nyy9nVmtWhsofnnPPPTt0F7Ni5UpatWpJUmIiDoeDJ5+YwPp1PzD5/amhO6hDyc3dQmZmxlG5JpHaHMvvavfu3faNgxtEq9btQ60QORtzmDjpLVq1bk9yahNatW7Ph9M+Ct3pt2zRgn79+oaO0+nkk1m4cBE5OZuq3SAd7nFEDqX/gIGh79LoO26ne/durFi5kh49uoe6Fqu6RRcsWAhAz5496D9g4EFvfKpauvb/Xbnk4gHVxkAnxMeHtle1cA8fMSrUojZ8xCjy8/PxeDwkJSYy+d23mf/dXO4aN/5XTXrzeDzk5+eT0bTpb/58pG4KasdAVYvZzK+/Ji4ulvT0JjX26XTyyaxfv4Ht2/NZs2ZtrWFu8rtvM/K24Xz08XQcDgc9e/ao1hpQpdDlYuGixao0Ui+O5Xd18KDLWL/uB9av3xAKhcOGXhOa0FD1V1erV3Z2Fj16dGfFypWsWLmSc889m6TExMM+jsihVE0mOJzv0eBBl1GwM4/c3C1HvJt9//IU7MzjyScmVBvnmZ2dxZxZX9GjezdmzZpNUmIirVq1ZMXKlTWOtW1bHlu2bCUpKemIlU9+oaB2DFS1mN05emy1wdb7y87OolWrlrzz7nuUlJSQnt4Ej8fDAw8+XGerRL9+fVm4aHG1MQ0ej4dHH32cHvsN5BY52o7ld3XRAcfZX3aLbLZs3RYaauDxeJj05lsHnRF6Rq/TmTx5CpMnTwmNv/ktxxE5XPu36ELl92zy+1Po2bMHAJ99/gUAd95xO+PGjqm1azHK6SQuLrbauLKPPp5eretzf1U3TvuPJ120b0JPocvF6DFj62xBu+TiAfz7+RertfAVulyMv+dehgwZHGoZlCNLQe0Y6XTyyVw68BKyW2TXuc8ZvU7n8QlPhMKcw+Fg1KjbGH/PvaEm6gULFnLbiFuBygA46b+vkZ+fH9reNDOLJUuX1WiRe3zCE3WueyPyex3L72r37t3IzMwIbW/Vuj1/vvF6srOzQjPQ7ho3nuTUJpx/4QBOO/XUg84I7dixAxkZTat1Qf2W44gcruzsLEbf+TdOPf3MUJ3o2bMHgwddhsPhoEFSUuh7np+fHxoHekav00OTCbZtywvNng7Vm+SGB13+afCgy0hLS6NpZhbJqU34dt53dO/ejaTERG695WYuGzQkdKyq/avK+8HUyUx+f2q1+gfUGApQ1dWbnNrkV68ZKrUzTNM067sQUmnRosVMfn8KDz/0wO/6QcjJ2cSfb678gXz1lZd0lyNhS99VkSPvSP2WHM75+g8YSN++fXjpxX+Hhg/IkaGgFiY8Hg/3/OO+0N2UiIjIr/HZ51/QIjub7Ows/ZacgNT1GQYWLVpM08ws0tLSVLFEROSw9O3Tm5defiXUfarfkhOLWtREREREwpRa1ERERETClIKaiIiISJhSUBMREREJUwpqIiIiImFKQU1EREQkTCmoiYiIiIQpBTURERGRMKWgJiIiIhKmFNREREREwpSCmoiIiEiYUlATERERCVMKaiIiIiJhSkFNREREJEwpqImIiIiEKQU1ERERkTCloCYiIiISphTURERERMKUgpqIiIhImFJQExEREQlTCmoiIiIiYUpBTURERCRMKaiJiIiIhCkFNREREZEwZavvAtSlpKwCV7GbQCBY30WRMGK1WkiMcxIbHVnfRRERETnqwjaouYrdJMZFYbdb67soEkZ8vgCu4nIFNRER+UMI267PQCCokCY12O1WtbKKiMgfRtgGNREREZE/OgU1ERERkTCloCYiIiISphTURERERMKUgpqIiIhImFJQExEREQlTCmoiIiIiYUpBTURERCRMKaiJiIiIhCkFNREREZEwFbbP+gwbponpcmGWlWIGAvVdmnphWK0Y0TEYiYlgGPVdHBERkT8MBbWDMPfuxfPWm3i/nYu5Yxemz1vfRaoXhj0Co1EKEWecieOaazHi4+u7SCIiIn8ICmp1MN1uyh55mIqpU+u7KOFh6xb8i5cQyM0l+oEHMZzO+i6RiIjICU9j1Org/fprvDNm1Hcxwo53xgy8X39d38UQERH5Q1BQq4PnzYmYHk99FyPsmB4Pnjcn1ncxRERE/hAU1OoQ+GFNfRchbOmzEREROTYU1Oqg1rS66bMRERE5NhTURERERMKUZn3+RpakJKwtssEeWX1DMEhgex7BLVsgGMSw27E2awZ1zJIM7ioguHMHmGaNbda0xgQ9bkyXq9b3GikpWFNTa6xtZhbtxSwvx0hMILh16yFbwIzYWCwNGoKlem43y8oIFuyCYPCg7xcREZGjQ0HtcBkGUSNuI+LywVji4sFqrbbZNE1wl+OfN4/Shx/GcDiJfugRrFnNaz2c6XbjfvopPNOmVXvd3vNUYp56ksDGHEpGj8bcXRDaZmnQkOj77sXauTMWR/UAaAYDuP/5T0zTxHnV1ZSOvgP/hg21X0p0NM5x44jsdQaG00G1qBgM4nn9DTyvv0bNCCkiIiLHgoLa4bBYcFx1FY5Ro/AvXULF628QLNxTfZ+ICCL69CXirLOJBtzP/hMjIR7f6tV4PzhgTTabDecNNxI1/h48n34K3soFdS0NGuL8y18xvV5snTrhGHot7meeqWx1Mwyi77sX+xlnUvHFF/jmfw/7PTHB9Hnxz/uOiMuHYCTGg73u/4ujxowhcuCl+L/9Ft/SpeDz/3IcvxfvF19iqjVNRESk3iioHQYjJoaI8y/Av3IVJbfdhllUVOt+FdOmETVyJM7hI/B++hkAgY0bqPjkk5o7WyzEPPEk1pRUAtu2AhB5xRVYT8qkZNhQIi+9DOd11+NfugzfN3OwNm2K/Zxzcf/737hffOG3d0vGxRF52SC8M2fifvopTL+/5j4VmjQgIiJSnxTUDoMR6cCS1gjPm2/VGdIACAbxLV2Gw+3G0qpV6GVLZjPsXbr8MhbMasV5802Ye/YQ2J5X+VKH9kSNGkX5M0/j37CR4MRJ2PudRfTd4ylevw5ry8rj+Rcu+F1jx2zNm2NERxPZvz8RF1xQc4fyckqG30pw4cLffA4RERH5fRTUDoPp82LucWHv1pWKNyfV2S1oGAbWpk3B4cDckvvLhvJyrB074LzmWjBN/KtWE9yYg/v99yEYxNK4CTGPTcC/aTNmeTmRl1+OYRgENm4k4pxzcFxzDRWfflo5QSE7G9+SJb/5WoK7KicJ+BYuwPfFFzW3F7rw/47ji4iIyO+noHY4SkrwfvstzhEjcIwciee116C8vPo+FgvWbt1xjBiOf/ly/KtWhzYFC3bhfvxxghs2EHXPPzDd5RSP/zsUFYHVhvOaq7G2bEnJn28k4rTTiLzueqAy+GGz4Rg6DO/nn+P/YQ3OO+4gmJeH7/vvD9qyVtdEgGB+Pv5ly7C1aYvn5ZfxfvddrTNPRUREpP4oqB0GMxDA8+ZErBnpOC6/HOe1QzHM6iEpCFisdryrVuB+8CHMQAC8Xox9A/7Nigo8kydj+nxE/e1vxE2YQNnDD0N8HBGXXkrFpP/imzsX/+LFeCZO+uXACfHE3Hs/0U88hfuZp3HecCOxz/4LM+CrXka/H8/LrxAsL8dIakDc629Um2xQxb9sOeVPPYnzjtHEPPdvzPLyakHNDAaoeOtt3K+9Wuv7RURE5OgzTDM8m1F+2lZIWkp8vZ1/Tx3LaQAYERFYsrOxpqWB9YCsa5qYe/fiz9mA6SrC4nBg69yZ4O4C/Bs2/rKfxYqtQzssKan416/H4ojEmpGJd/FizL17azmpga1VK6wZmfiWLcXEwJadDbGx1dZRMwJ+fMuWAWA7pSuGpfY1jf0//EAwfzuW5BSsrVpixCdUP04wgG/J0so13mrRYNPmOj+foy1/115OSk+qt/OLiIgcKwpqdThYUBMFNRERkWNBj5ASERERCVMKaiIiIiJhSpMJDpMRFUXEOecQMWAA1ibpB2yk8pFS/gMG35sQ2L4Nz/tT8M2ZDRUVdR7fkppK3FtvYXgqal+EtkqUk4rPPsP97LN1FNTAmt607vNkZOC44go8//sfwby8WvcxvRWYu3dXTogQERGRY05B7XBYLDgGDcY5bhy+mTMpf+YZ8P4SuixZLYgaM5rSu8ZAcXHodTMyEsegQcQ99hglf/873i8+r/MUht2OJSMT97/+hW/RQiL69cM44HmigS1bcd58MxE9TsVN7UHNiIgg9j//qXN5Dkt0FJa0xthO7kjQXfMJBAbgnfU17n/+U7M+RURE6omC2mEw4uKwX9gfs2AX7uefg0D1GGTExoEJ5vbtmK79nlxgmpQMH0782+/gvO76GkHNsFp/mXFptYJpEtiSS2DtWhwTJ2EWFWGWllVu97jxfPQRjooKTMPAsNn2ncKs/sxPr5eyv48Dw8CIjsGamUlg82ZMj7vu67PZsLVpR2BLLsEiF4Gt2zAP0vonIiIiR5eC2mEwbHaMpAQsqY2I/997NbabNitGhJ3Yl1/B2C/D+Tasp+TGG/CtWUXkeefXeF9En77Y+vatPEdMNIbViuOqq4jo3QfDbsf/888Et20L7R81YgRGw2RssTFE3f8AAMGtW/G89SZm2b5AZ5r4li8HwNIojaiHHsK/cCEVH0zFv2JF9QAWEYG9cxdsF1yA47xzKR45Ev++94qIiEj9UVA7DKa3AnPXLvw2G8WDB8MBY8jsnToT88or7B08iODu3b9s8PsxKyqwd+lafS21fazt2xN56aV4/vc2kRdeSODnn/DO+abyrU88UbMgfj/BoiIcgwZj2O3YOp2M2akTFdOn/xLU9hPckU/ZXWOIfuhhIi66iMC69ZTePY7gTz9j69CB6EcewdIkHdNVSOmdowmsWPH7PigRERE5IhTUDoNZUoJn8mRiHnqY2Gf/ScXnn1ULa9bMTAyLBXufvpilJaHXDbudyIGXYk1NoXzC4zWO69+wHu/06VS8+x6R55+PpXETHH+6qvYyuD2UDh9OYPMmIi++BO+sWfg3b8KakHDQbk3fokUUnXcu9vPOI/qOO0iY8RlmWRlGVBTBLbmUjh2L9/PPNB5NREQkjCioHQ7TxPfZZxTn5RE5YADOIVdi2H4Z6G9GOcFqJfLyy7HsF3iC/gD+ZYspe/ABAuvW1Tis9/PP8X7xOUZc5QK/5s6deKd/XHsRvD7M0tJqr1VUTRo4yDM/MQxs3brjvOpPWOLjMXfvwTPlfSIHDsSIiSFy4EACW3MJ7PdsUhEREalfCmqHyfT78S9bhn/fY5r2Zz/lFOLeepuSoUMJ7i44jIOa1Z6ebiQnE3HRRbXv6qnA89qr1V+rK6AZBkZCAtbMDKIffgxb4zQC2/Io/fvf8c6ZA6ZJ+RP/h713b6LvHEPcxLcIbs+j7KGHCKxfh1lUpAe1i4iI1CMFtSMosHUbZRMmYJaVHnrn2rjduJ9/gWBREb6ZX9W6S9XszkDOJtxPPlVrC12IxYK1WTOsWVl4/vs6wS1bKp8DesDYOt8337B3wQJsXbthSWuEtUljqHDjX1FUx4FFRETkWNCzPuugZ30enJ71KSIicvTpEVIiIiIiYUpBrQ5VC8lKTfpsREREjg0FtTpYs7LquwhhS5+NiIjIsaGgVoeIK64Aiz6eGiyWys9GREREjjolkTpEDrgYe4+e9V2MsGPv0ZPIARfXdzFERET+EDTYqA6WpCSiH3kY93PP4V+8hODuAsw/6Kr9htWKpWEytm5dcY4ahSVJMy5FRESOBS3PcQhmRQXBnTswC13g89V3ceqH3Y6RlIgltRFGZGR9l0bLc4iIyB+GWtQOwYiMxJqRCRmZ9V0UERER+YPRGDURERGRMKWgJiIiIhKmFNREREREwpSCmoiIiEiYUlATERERCVMKaiIiIiJhSkFNREREJEwpqImIiIiEKQU1ERERkTCloCYiIiISphTURERERMJU2AY1q9WCzxeo72JImPH5AlitYfu1FREROaLC9qHsiXFOXMXlBALB+i6KhBGr1UJinLO+iyEiInJMGKZpmvVdCJH/Z+/Ow6MqD7ePf88syWQjJJCNENawIyjKoiACLqiAWkFq60JtlcXlJ7IIWvtaq0UQoVgVcKk0itVSQRERFxREUAiyiYBAUAmEEBISISGZLDPn/WPIwJgEEAJzgPtzXXO1M2eZ5wx5nHue7YiIiEhV6kMSERERsSgFNRERERGLUlATERERsSgFNRERERGLUlATERERsSgFNRERERGLUlA7h7wzdx5Tpk4LdjFERESkliionSFTpk4jmJ39XAAAIABJREFULiHZ/3hn7rxgF0lEREQsTkHtNMsvKGDwrbcBkJuTRW5OFrt27mDlylVq/RIREZFjUlA7zT7/fAldu3Rm9KiR/tdcLhePPjqeVemrSU9fHcTSiYiIiJUpqJ1GbreblStXcXmP7lW2xcbE0LVLZzJ37QJ8XaMzX3qFwbfexpix43C73aSnr/Z3lQ6+9TbyCwr8x78zd16N2yodfXyvPleTkbHj9F2siIiI1DrL3pT9fNC4cSN27sz0P/98yVJmzniB2JgY8gsK2LptG7k5WYAvyH3++RIGDbyZd+bOY87/5rL1+++IjYmp9twZGTtY9NHH7Nq5A5fLRUbGDp6ZPIWJE/9e4zEiIiJiLWpRC6KdOzNp3LiR//ngWwb6Q1RsTAy3DBrImLHjiEtIZuKkyezcmelvpRszauQxA9f6DRt44cUZpDRuTlxCMpd278m27dvJ359/2q9LREREaoeC2mnkcrno1q0rXy5fUWVbfkEBq9JX0yglpdpj35k7j2uvH8DwYUPJzclixvTnf/X7jx831j+BITcni6Wff0pqavNffR4REREJDgW106xPn96sSl8dMMPT7XYzYcJEunbpTJcunas9bufOTAb070dqanPyCwqY87+5wJHwN+d/7+B2uwFY+sWyKmPULuzYkVWr0v3j0vILCnhj9pun4xJFRETkNFFQO81iY2J4/d//Ijs72z+wP6Vxc7p16xowE/SXbrxhAAs+WEhcQjLDR9xPn969/NsGDbyZpKQkf7dmXl5elW7Q1NTmjBn9EJd27+k/R79+15+26xQREZHaZ5imaQa7ECIiIiJSlVrURERERCxKQU1ERETEohTURERERCxKQU1ERETEohTURERERCxKQU1ERETEohTURERERCxKQU1ERETEohTURERERCxKQU1ERETEohTURERERCxKQU1ERETEohTURERERCxKQU1ERETEohTURERERCxKQU1ERETEohTURERERCxKQU1ERETEohTURERERCxKQU1ERETEohTURERERCxKQU1ERETEohTURERERCxKQU1ERETEohTURERERCxKQU1ERETEohTURERERCxKQU1ERETEohTURERERCxKQU1ERETEohTURERERCxKQU1ERETEohTURERERCxKQU1ERETEohTURERERCxKQU1ERETEohTURERERCxKQU1ERETEohTURERERCxKQU1ERETEohTURERERCxKQU1ERETEohTURERERCxKQU1ERETEohTURERERCxKQU1ERETEohTURERERCxKQU1ERETEohTURERERCxKQU1ERETEohTURERERCxKQU1ERETEohTURERERCxKQU1ERETEohTURERERCzqvAhqbrebMWPHMWbsONxud5XtGRk7GDrsXtLTV9Orz9Us/WIZY8aOIz19Nenpq4lLSCY9fXXAMe/MnceYsePILyhgzNhxxCUkV/v45XFTpk6jV5+rycjYccwyZ2TsoFefq4lLSPaXu/I63pk779Q/FBEREbE8R7ALYAXh4eEAfL91KwBr1qzlmzVr6d+/H2vWrKV3716ktkg95jnGjxvL6FEj/c8zMnZw99DhlJWVMWbsONJenx2w/6Xde1Z7niF33s5TTz5Bfn4+AFOencRrs9JYsvQLJj3zLJs2bSbt9dmsXLmKDh0uIDw8nEEDbz7paxcRERHrOi+CWnFJCZm7dtMopWG127/6+mvefW8+7743H4BNmzYDkJmZyYIPFrJp02ZatW4P+IJUXFwcz075BwAHDxYCkPb6bCZOmlzl3CEhITw7eRLPTp7ElKnTWPDBQl59eSapqc2PWeYvl6/gkos7cdWVV/LBwkXUi43low8X8NhfHqdbt64UFxfz2qw0BvTvd3IfioiIiFiepbs+09LSuOeee7jnnntIS0s74eOmTJ0W0P3YqnV7lixZStrrs0lp3Dxg25Sp0xg08Ga+XrGMdu3aArBwwXvk5mSRm5vHpk2bWbjgPf/2wbcMYtzDY5gx/XmG3Hk7Eyf+nTp1ohg/biy5OVksXPAe7dq15esVy8jNyaJLl86Ar4VtwQcLGdC/33FDWn5BAavSV5OUlESDBknMeftN/3kA8vL288HCRVxycSfuu3f4SXyyIiIicjawbItaWloaixcv9j+v/P9Dhgw57rGjR42sthsyPj6emTNeIDYmJmD/jIwdPPrnvzDu4TFMeuZZ+g24qco5K7siY2Njq33PiZMmB7SoVXZtVnZlzn9/AZs2beaZiROYMnVata1v4AuJAEuWLKXrUeHsWMc89eQTuFyuareJiIjI2cuyQW358uXVvnYiQe2X1m/YwKZNm9m0aTMZ2zMCWqcAFn/2ORP+/qT/+cIF7/m6SzMz+eCDD8nctQuA+Ph4YusdCWppr8/2d33OmP48gwbeTHr6ah4e/2hA9+Y7c+cFhKyjg6Tb7eaxvzzON2vW8urLM2nYMJnH/vI4AKtWpdOrz9X+gNm4cSNG3PuAP/wpnImIiJzbLBvUaovb7WblylWMHzcWgDn/e4cOHS4ICDnDh91DfkEBw0fcz/33jfAHuR07fqC4uISVK1cRFRVF1y6dCQ8L808OGHLn7Yx6aCQjR43h448/ZcS9D/jPeWn3nrRr15ZXX55JXt5+pjw7idFjxlUp34vTZ5K5azfz5s7xt/QlJSUB0LVrF384qxwjB76AmPb6bP/5j9eVKiIiImcny45R69Gjxwm9djwfLPyQtNdnc3mP7tx4wwC+WbOWb7/dGLDPlKnT/OPYRtz7AHEJyfTqczWmaXLVlX34Zs1aliz9ghtvGIDL5eLZyZOYMf154HCXqGly+eXdA8amVXZhgi8Itm7VCvBNEjh6jNzESZNZsmQprVq39y/F0bvXFdx/3wj/8b1792Lr998xftzYgLFwIiIicm6zbFAbMmQIV111FS6XC5fLxVVXXfWruz3T01cz4t4HmDH9ebp06UxqanPuv28ED49/NGAds7vuGkLv3r2YMf15du3cwZA7b+eSizvRsGEyDRsmc8nFndi0abN/nNrR1q5bR6NGKTRq1OiEynR5j+6+iQqHH+PHjfUHsdycLJ6dPIlOnS4iMjLSf8y+ffuYNSuNoqIiJk6aTFxCcrXj6EREROTcYtmgBr6w9sorr/DKK6/86pD2ztx59BtwE+PHjQ1YZ2zQwJsZ0L8fl3bv6V+MtiC/gDGjRvLCizNIadycb9asZfiwobhcLl6cPpODBwv5zU03Vgl4Bw8Wsnz5V3Tr1pXwsDA2bdrMpd171nqQ2rRpM40bNyIyMlItaiIiIucRSwe1kzVl6jRG3PsACxe8FzD7s9LoUSNZuOA9+g24iSlTp/He/PfpN+AmNm3azP/mvMUlF3fyBy6Al1+azj+fm8olF3di/vsL/Odv1aolL7803R8Ea+r6/KXKOwxUdn127dK5ykzUSjt3ZgaETbWoiYiInD8M0zTNYBdCqpoydRpAQNA8+rXqZpeKiIjIuUVBTURERMSizsmuTxEREZFzgYKaiIiIiEUpqImIiIhYlIKaiIiIiEUpqImIiIhYlIKaiIiIiEUpqImIiIhYlIKaiIiIiEU5gl2AmhQeKqXgYAkejzfYRRELsdttxNQJIyoiNNhFCSrVD6mO6oeP6odU52ytH5YNagUHS4ipE47TaQ92UcRCyss9FBwsPusqWm1T/ZDqqH74qH5Idc7W+mHZrk+Px6tKJlU4nXb9Skb1Q6qn+uGj+iHVOVvrh2WDmoiIiMj5TkFNRERExKIU1EREREQsSkFNRERExKIU1EREREQsyrLLc8i5pbQcvt7o4eN0L3vzfbNuEmNt9O1i49IL7IQ6g1xAERERC1JQk9Nu/0GT5+aUEx1hMPwmBynxBgC79pm8s6SCz9d6eHCwk3p1jCCXVERExFrU9SmnVbHb5JX5FXRuY2PUrU7iY2DSm2VMerOM+BgYdauTzm1svDK/gmK3GeziioiIWIqCmpxWy9Z7iI6E67o5MKppMDMM37boSN++IiIicoS6PuW0cZfBdz+Y9Otux3F4kfCwUINH7ggJ2M9hh16d7Cxc4aFXJ3CFVHMyERGR85CC2hmWnb2H0SPvYfv2FURH16d1q4vofGkfLu7UneTkhkTXrYvNdm40dJaUmpSUmcTHGAGvTZtTDsDIwU7CQn3b4mMMSspMSkpNXCEaqyZHeL1e9u/PIyIikvDw8GAXR8RavG4MTz5GyVZsB5ZjO7QGo2QLRtleMEsP72RgOqIwQ5tiRnbGG9Udb+Ql4IjDtEeBodttWZmC2hlUkL+fe0fcQ+9uq5k9PZaiogo2b/uaDd8tI+3VcOwhnWiS2oerrryGpk2bYbefe5XHXQa5BUf+f9jZdW9cCYIdOzK4/94R3Hf/A9xw403BLo6INZjl2ArTseW/h/3AYgz3NjAratoZo+IARsV6OLQee84rmI66eOtcgTf6arwxfTFDGp3R4suJU1A7Q4qLi5n0zCSSYldx35/qEOYyCHPZuaK+nZ6XhlJY5GVX1moyfvyGmf98k2atbub2O4ZSp06dgPMcPPAzK1d+zveb11LucdGjRx86XtgJl8sVpCurWVioQViIwb4C87gzOvcVmISFGP4WNpFKG7/9lhUrlnPpZd0V1ESAiuLdOPdMwln4EUbpLuDXT8QyKn7Gnj8f+4HP8O57FU/SKDz1BoKhWGA1+hc5TbxeL2VlZQAcPHiAZyY9za4fZzPntTqEOAPDiGFAnSgb7VrbaNcabrg2h69WTWPYH//J/41+g86dL8MwbHyz+iuWfXI7I4fbGNDDRnGJl60ZL/PqzD789raJxMUlBuNSa+QKgfbNDJau9dCioc0/Tu2XKjywdK2H9s0MjU+TKg4cOIDX6yV91cpgF0Uk6EoKNpH91TBK8tJpkggxdcBW3UytE+UpwnZoPbaMO7Hlz6Wi6XOYzqTaK7CcMgW108Dj8fDZ4g+ZN+cpXKHlbMvIp8ydz/iHoqiogJDjLO5qGNC9Wyjdu8HHS+5k7lt9yMpJoV74bP48yo5xuFKGh9kID/PQu8vnzJ/7JLf/YYrlWtZ6Xmhn/fYKFq2soP9lDlwhEBfj2+YKAdOERSsrOFDk21ekJmvXrcXtduNyuTBNk/LycsrLy/F4PBiGgcPhICQk5JwcMiBiml6K9y4he+VI3Ae2AvBjNhw8BEn1a2dsrz3/fYyKn6loNBFvZKdTPp/UDgW10yAnJ5tPF01i5NBsGiTayMn1kpUdRWiIwetvHyIpwc61V7oIPYFuvr69HezPX8qS5aV8+Kmb0JAQfn9LOE6H79jV68q55EInHVIX8EZaKvcMe+h0X96vEu4yuOdGB8/NKWdbZjmDejsYd5uv2cy34G05Bw6ZPDjYSbhL3Z5SlcPh+89U4cGDDBt6N+3atWNfzj5y9uVQVlaG6fViGAZ2h4OIiAguvfQyrrv+ehITk/w/akTOaqZJUdZH7PnqPsqLswI25RdCWQU0STIJdZ7q37uJ7eAXOH4cTkWzmXgjFNaswDBN05KrjP64O5+k+OhgF+OkvDRzMlH2qfzhd+EBa4eZJpS4TQoLvSxfVcZlXUJISjixX/+mCUVFJoPv2k/LVAcT/xpNmMtg244KPvvCzZ23RvDPl9385vdf0rRp89N0ZSevNm8hlb3vAE0bxp6mkp4dzub68Wu99Z83+dMf/wDgC2R2O16vF6/XW2VfwzBwOp24XC6u6Xstz78wnejo8+NzqqT6ce7VD3f+Rnav+CPu/Rtq3CcsFNo2odZ+nJjOepS1/QwzrE2tnM8qzsb6cW6sA2Exiz9+k9/0c1VZ4NUwIDzMICHezsABYTWGNNMErxc8Ht//ek3fsVFRBm++Gsu+/V4WfOTGNKFlcwft2zjJ3uvhkZFhzP3v3yktLa32vMEU6vStlfb0cCezHg1l1qOhPD3cSa9Ous+n1Mw0Tdxud8DzioqKakNa5fby8nKKioqY+87/6HzxRSxY8D7FxcVnqsgitcrjziN348RjhjSAklLYkeX7zqgVhgujZHstnUxOhbo+TwPTs4u60XVP/njT5NAhk60ZFaxYVcaeHC/tWzu45aYwYuvaeGhEJD/8VIHHAw4HJMbbCTk8PiG10SbWr1tH127dautyRIImf/9+3ngj7YT3j4uL556hw4iICMftdvP2W29x/70juP+BBxgzdpy6QuWsc+CnuRzc+d6J7XsIcn82SYg9lb9zG57YG/DE/xFv3b6ncB6pLQpqp4HHbEB+QSGxMSc3qNlmMwgPN0ht5sDphInPFfHewhIubO/ggnYhdOrgZOU3pZSXmzgcBs2b2vEcvvtS5m4vKS31zypnv+LiYvpecyWbN28+of1DQkJY9PGntGrVCpvNhmma3Pq73/PWf95kxvTpREZFMWLEfae51CK1p7x4Dznr/4rpLT+h/U0T9v0MEWEQGfbr388TcyOepHsxwztgOs6u7sFzmb7RT4Orr72Lf8x4hsdGh5/QhIHq2O1QN9pGaIiDCY/V4e25xdwx4mfWLo3D4TAoKoKyMpOwMAObzaDyZgabM+px14hWtXg1ImdORUWFv3vz/vtGnHBIi61Xj6VffEmjRo3JydlLSUkJPxf8zIoVX7Jx40ZcLhejHxpJy5at6N27zzlz9w85t9mddUjtt/zXH2eH0l/zJ24L8wUzm7VWDRAfBbXT4Le/vZO/P7WWt95dxu2DnDhO4VMOC7PRtLGNR0bVoV49Oxk/VNAy1cmQ34Wz6DM3AweE4Tw80yd7r4fLut9MVFRULV2JyJn1xutpmKaJ0+nkk08+PqFjkpMb8tzzL2C325k540V++vEnGqY0xDAMsrP34nK5/OPcxox6iH+nvUHHCy88nZchUitszkhszsiTOtaSswTlpCionQax9eoxcvTfmfXqBD7/chHX9K6d0fJ33xHBd1vKMIHkJN+NzsvLTX9Qe+0/xdx617W18l4iZ9q+fTk8+bcniI2Nwes1yd+//7jHOBwObrjhRgDm/PdtLrusB3+6eyjh4eEYhoHH46Hw4EG2bNnCa6+9yn/ffotp06byxN+epFGjxqf7kkRETpmC2mlgGAaNUhoz7pHn+MMdmbRK3UzjlFP/qG026NAuBNP0TQMdcK2L0NAj7duffVHKfWPiTvl9RIJhzZo1lFeU07Xbpcx67V/H3d8wDFwuF3tz9vLthvU8OHIUYWGBA3Psdjt1Y2Jo2bIlq1au5PY77uSN19N4d95chg2/l6cnTlI3qFjO999/z+P/7y/8sCPj5E9Spz6hT3x2zF0ahcN9TU26xZrYNc/GshTUTiOXy8WLM17nn8/254lxuYSe4MrRpgk/H/DyU6aHsnKTrhcH3lepcuba0SEN4OYBLl6ZOZ4hdz1BdN2Tn3UqEgx2u52hQ4cz5dlnjrlfnehoWrZsSUR4BBUe35i2ujExzH/vXZo2bVZlxnN29h6G3v0nMjK2U1paSsuWLdmyZQvTX3yehIR4Rj40WmFNLGXb1q0sW/YFPxfkn9J5XIXH/s7ZVAif5xn8JtHkL228NAg9pbeT00T/dTrN6tWPo2//MazfWHHcfffleXjn/RIen3iQux/8md/fU8C//3Oo2n2LS0w+Xeqm4MCRRXOG3hlBk6RP+PTTj7DoOsYiNerW7VJWp6/y3yO30gUdOtCvX3+ioqJwOBx07NARr9fL2rVrWLVyJe/Pf4/RD43kT3/8A7l5uVXOu+Tzz/lmzTc0aJBMo8aN6N7jcvr2vZZWrVrx2eLFFB48eKYuUeS4vF4vu3ZncuDnglM+l1l0/KBX6oH/Zhk8sMFG0fG/piQI1KJ2BjRP7cLmtS2BH6tsq6jwBa4PPy0lrp6NZ184RGmZScXhCvPkn6sfSPpVeinNmzioE3nkF1NIiEH9ugdZtnYlhw71JzLy5AahigTD3r3ZrFhxZIabw+FgxsyX6d9/ABu+3cCGDRtISEikrLyM9evWBSx6axgGj//1Ca677voq560bE8MjjzzKbbfdgcPpJCQkhIqKCkrdbmbN+hcl7hKiUQu0WEN5eTn7cnJr5ce2d9My7F1vOu5+JrAkz+DDHIPByfqRbzUKamdAVJ04Ckv7MuPf8ygrq+BAocnBQgdlnrqEhDalqGAhf304hIR4G9+sL2fhJ0fuLNC6RfUTEa7sGYrbDQUHTCLCICzMF9gu7RLKloxl/LBjKx06XnxGrk+kNiz8YEFAa1piYhK33X4Hebm5vP3Wf0hqkESYK4xly74AfF2lkZGRpKSk8H8PPsRvb/1dtTdk79v3Wvr0uRKXK3DpgaioKB4aNUY3cRdLqZwAUxu8P64/oaAGviE3b+82GNhA49WsRkHtDAgPD+fKa+4lL28QRUXFOBw2oqOjiY6O4cH/u5/keiUkJtQBYPITdfh0aS6V31d79npo36ZqWDtw0OSZfxaydbuHW292MehG331Fy8pM6tfNZvv2VXToeDH5+/Ow2x0asyaWVl5eztdff42ncuVm4ODBA6xbu5bXXnuVwsJCbrzxJj76aBEjHxoNQJ06UTRp0pQuXbvStGmzGu86YLfbawxjjlNZO0fkNDBNE4/Xc/wdT8ShX9d9WuyFUi+E67eLpei/UmdIREQEERFNA17LzNzJW2/9l9/0OxLEmjRycOdvw3n1Dd+9Cf8xvYhrelddhDAszCB9bTl2G3i8vl9DhgH/m1/Cv/9TTK8+Gfxj5yR+yHif1q0v47Y7H6VuTMzpvUiRk1RcXExRYWHAa+3at+ePdw2hcePGvDhjJu++O49evXoz9uHxgC9k6ZZQcq4xDAO7rZaSUmjEr9o93AahGrluOfonCaI3Z7+Ox+Nha0YFW7b5bhESGmpw/dWhhB6e6Ll8ZTlTXiwkK7uCoxobCHHCJ3Pr8fHc+tx6czher8n/3ishJ8dDm5YOGsS+SaO4aTz58G5iIldxsPBAEK5Q5MR4PZ4qY842rF9PSkoKEyY+w7vvzqNebD0e/fNfcDqdOJ1OhTQ5J9ntdqKi69TKuYzGF5z4vgb8NlndnlakFrUgKSsrI2vXV4SHGWzLqGD+h25SmzpwOg26XBzClVeE8uGnpRSXmIx7vJBX3yhmyfz6JCb4fmkZhsHR31O5eV6aNrGxv8BGQoKdwTeGcajExO6AffsdGFp+QCzMFRZGSIjv14lhGLRo0ZJBtwymc5cu7N2bzfXX96NZs+ZBLqXI6ed0OomPj8MwjFOeUGBr3/uE9jOA3vVM+iVqIoEV6ds7SA4VFdG9q8lL/4gGA2a9WczGzb5WtcR4Oz0vC8Hl8iUxE+jQ1klERM0/dZIS7aQ0cHDdVS56dQ8lMtJGYrydzN1eCg4mERH265rARc4kl8tFo8aNsdlsNGvWnEsvu4zWrVuTnNyQ3r37KKTJecNms5HSsBHRdU99qIotJvG4+4Ta4NYUkxc6eolU040l6Z8lSErLSomtazLgqnBK3CYjRh/gqt/s59vlcTRs4ODeP0XwrzdK2P6Db52O5AZ2nI7Dwc30TRoICSGg+ych3k6Fx8RhP7Lfth0VhIa1JlL3/xQLMwyDMWMfJn3VSi68qBPX9+tP//4D1L0p56XUFi3o1rUb27dvP/mThIbhOs7v86bhJqNSTbrEqMvTyhTUgmh3li+E/W5gOPkFXp7+RxGtuuTy14cjueWmMO67O5yxjx+kvBxm/OsQl3UOYeANYWzZVs5Hi93cMySCqMjA2uU4qraVlZl89Hl9bvtDT3+3kohVNWnSlPRv1gW7GCJB17ZtW96d/34tnKmWZo9KUKnrM0hCQ0J5/+MKpk4vxBVq8MDQSP4xIRqPx+SxCYXcdd/PNGroYMJjUURGGJSVwz0jf+aHnRWkJNv5Zn05j08spKy85jEFH35aSkR0Dy6++JIzeGUix2aaJl6vt8bxN16vl/Ly8hq3H+940zSpqKiodrtpmr7lDzyeGo/3eDxUVGiJdhGxBrWoBUlUnTqUukP5y4Qitv/g4bkJ0dwxOJxuFzsZ+ehBPltWyvrvCmiV6mDcg/F8s7kL9erFcs+Dcxh4QwjzF5Xi9Zrszqrg5Wl1qRsdOJ177YYy/jwhhI8++QsRERqfJtZx4MDPLHh/Pn2vvY74+IQq2zesX8f+/Xk4nE569epTZfuuzEwWfvA+t/7+NmJiYgO2mabJtxvWs29fDpdd1oOIX9ydIy8vl8ydO8nN3UfnLl2pV69+wPZ9+3JYv24tcXHxXNRJC0ZLcB2qKCe/rPhXHWMYBthtv2oCWQQOIh1OHKj/04oU1ILE4XAw8JabWfbll7ySVsz2jAr+Oj6Kdq2dfDinHgcLvSz8xM2Cj9w8PjGXKVOu5O577uaJxx0sWPRf6taBJx6py/c/Xcg9Ywq545Y8mqUU4/HCsq+dzP+oEUuWLqDuL77IRIItY/t2wsPCyc3NJS4uvso4tEOHDrFnzx5atGhZ7fE//1yAzWaj+FBxlaBWeWeDCzp0JCw8vMqxHo+HlV9/xZ49e6oNYgcPHGTdurWEhIQoqEnQFVWU0vezf/NzacmJH+SwY28Qjy2q6t//8fSJTGJYbCtau6Kpa9dwGaswTIvevfvH3fkkxUcHuxin1f68PDp0aMYFbQy+/LoMpwOuuzqUbpeEkNrMwVVXhFJYZHL9rfW58qqrueSSi+lxeQ/efms2hYX5OJ1h3P/AKLyml8Wffsy3G77FNE1at27Nddf3Jzr63Pz8svcdoGnD8zuAns3145vV6dSJjsZus9OkadMqdw3Ys2cPdaOjCQsPrxLivF4vO3/6CfDduaDjhRcFbDdNk927dnGo+BBNmzYjNDQ0YHth4UH25+2nsKiQpk2aVplkc/DgATIzM4muE01Ko0a1dclnlOrH2V0/fun1Hev4y4bFlJ/I3QoMsNWPwR5/8v/+DsNGn8gkBkc34eqoBid9Hqs6G+uHWtSCKLZePf7617/RuN4z3HNnOE/XidsiAAAgAElEQVQ9W8j8D0tZsKiUunVtNG9iJyLCoF37Xtz/wH3k7M3B6XDywP+N4plJk1i5chV9+27nqaeeZOiwYezN2Ycr1IXbXc7QoUP54x//SFJiEhOensD1113Hnj17WLVqFQChLhdvv/12kD8BOR+12L0bV2QkIS1aYgAH352H64ILCEltAUBCdDTuNd9wcN8+wNeV42yYguvCC7GFhtKkadMja0yZJmU7MihZv56ofv2xhYXRMCUF0zT9Ia9ibzbFa9diFheDaRIDNLz8chy/CGnlu3fBmjU0LCvDsNvhLA1qcm4Z0LA1X+Vm8v7uLcffOTQEW+ypBdQK08snhVmsK96PF5O+UcmndD45dQpqQWQYBkP+cC8T/vomfx2zn1tuCmPT9+X8/dlClq4oZ9uOCkwTnJsXEBkZQf8BAygrK+OiTp3YuHEjH3/8Mffdfz+ffPIJ1113Hcu/XEFERDiJiQl8+eUyQkNCGTCgPwvef59rrr6adevXs3jxYkJDQwmvpltI5EzYM+xP1B81hrg2bTHLy8m6+w/E/+0p6h0OamZBPrlP/Y2SNashJATDNPGWuIn+7e9IfvlVfwAzDIOK3Fx2/uZGyjK20WzVWsI6dDi8GLRvn5KNG8kccD3eQ4Vw1H09U/4zh8jEJN8Tr5e8Z59h34SnsLlCMQ0DW2gY0TcPPLMfjEg1YkLDeKDNZewoymfTzzk17+iw42iaXGuLm5cZXpqFaFknK1BQC7KQkBBuGDiN514ZycUXZNP1Eif/fS2WEjcUF5t4PCaLFruZ/e5GkpNH0Lhx44DunNLS0irnbNmyFTHRMSz+bDH169fDbrfTpk1bPv7kE9q0bs3oMWNo3LjJmbxMkV8tccpz1Bk4CLOokJxHx1P00aIq+5Rt3463sBBHg4Zk3zecpl8sD/iiKt+yGbxeUv4zh7Bul/pftx/1Q8W9bh0Fr75C7JA/Ev/XJzB1D1GxmLbR9RnXvifj13zMnpKDVbYbYaHYGsTVWkhr66rLM0mdaRFaO7eyklOjoGYBF3ToQn7BUzz2t5HEx2bTormDxHgboSEGBwtNMn6sYOO3a/hs8Sfcd///BRw7ZcqzRERGEnnU7LYWLVsSWz+WnZk7mT//fZKSGhCfEA9AVvYevvnmG667/vozeo0ifhUVFL4/n/KffsI86v6ev/TzW29Skr4Sr9tNyerVxAwbXmWfvQ+PIqxrVyJ6XsG+//cYZVu/J7RNW/92R3JDzIpycqdMxtmwITa7HUdyCjH33IMzyTf+xr1lMxWFByj7cQc5/+/PABjOEBKnTqvlCxc5OQYGfRKaMfWS63ls/WIyCvOObIsIw55YD8MVeowznOj7QLfwOP6ccCEXuOqe8vmkdiioWYDT6eTKK6+hTZtP+P3vbuXDT9ZiVP4wMsHugGZN7Dz15F9ZuvQLrul7FR06tiM+vh67Mndx++9/xwUdOvjPFxUVSYMGyaz5Zg3Z2Xu48soriYryBbmC/AI2btxIRXl5EK5UBDAMHHHxuNq2A4+Hqu0DPo64eEIaN6Hi5wPgNSk/PImgUkVuLiXr1hLmcODJzcNwONjzwL00/eRzONyyENa1K00+Woz7u42YpaWUbtnC/uenYU9IoJ4/+JkYpok9th72ON9yIYYjcIKDSLDZDIOeCU149dKbeHjtR6Tn7caoXxd7XEyttaQNqJPC/0u4kDiHq1bOJ7VDQc0iDMMgOTmFTxcv4e233uTDhbNp0mA3LZofoE0LBy2bO7jpjv188smnfPXVV0RF1cHpsDNsxHDenP0mbdu1Dzhfo6MGQjdp2pSwMF9XT8eOHRn78NhTvtmvyEmz2wm79FJi/28kZnk5OU89Ue1u4V27Uqf/ADzFJZTv2knhRx8e2Wia7Ln7j9icTgyHg0PLv8CRkEj5zp2Ubt9GaKvWvv28Xmx1ooi41Nft6UxJ4dCnH+PNy/WfKrRNO2x1YyE8nOjBgzFCQmrti0+ktrWsU5/pXW9kes5mPivPI7uimFP5r3mEzUGTkEiG1WtNv6iGONTtbzkKahYTEhLCHXf+gWuvu55169axa+d3fJ+Zzb6DZfxmkIN+N9SnadOmLF68mDXfrOWCCzqydevjeH/RhXRxp06A7wa/jRql+CcPZO3J4oXnXyC6bjT//nfaGb8+EcPh9M2qPOr5kSZkMAHD6aTg1Vc4MG8ulJdTkZtL3d/d5t+ndPs2SrdtJfzyK0iZMxeAsm3b+Onq3hz83xziHn0MbDbKd2WSff99eNy+dajMQ0VgtxF+eU//uVwdOlD/wZEUvPIyu9evwwgNxR7qovFHn5zmT0Lk5DQIi+Lxxp25oSSfTwv3sLw4h22lB6j4FT/AYx2hXBYeT/fwOK6ISiLZoQlmVqWgZkGGYRAfn0Dfvtfi9V6D2+3G6/Vyjc1GSEgIDoeDBQs+YNv2rf5lCHwPAN/znlf0xGYYRNeNpmkT31pVhuFbu+2TTz4mPEyVUoKj6ZJlOCrvCOBw0PSL5TiOukOBIyGRBtNn4i0+siK7ERqKIyHR/9zZIJlG8xdgr1sXW1gYAK6OHWnyxXIcMTGYhoGBb4xa4rTnoPKHjM2GLTIy4P0Mp5O6f7qHOjfehOfQIaiowFSrglic07DRJbw+HV0x3ONtwY6yIlYU7WNTaT4/lB0i1+OmxFMOhoEdgwi7gxRHBO1ddekWHs9F4bHE2EKJtDuw6Y4ElqYFb+WsczYuWFjbVD+kJqofqh9Ss7OxfmgghoiIiIhFKaiJiIiIWJSCmoiIiIhFKaiJiIiIWJSCmoiIiIhFKaiJiIiIWJSCmoiIiIhFKaiJiIiIWJSCmoiIiIhFKaiJiIiIWJSCmoiIiIhFWTao2e02yss9wS6GWEx5uQe73bJ/tmeM6odUR/XDR/VDqnO21g9HsAtQk5g6YRQcLMbj8Qa7KGIhdruNmDphwS5G0Kl+SHVUP3xUP6Q6Z2v9MEzTNINdCBERERGp6uxrAxQRERE5TyioiYiIiFiUgpqIiIiIRSmoiYiIiFiUgpqIiIiIRSmoiYiIiFiUgpqFvTN3HlOmTgt2MURERACYMnUa78ydF+xinFcU1IKkphCmSiDnE7fbzZix40hPXx3wen5BAUOH3UtGxg4A0tNXE5eQ7H8MvvU28gsKglFkkVpT+ff/y++CKVOnMWbsONxud43HTpk6zV8f9IP+3KagZmGDBt7M6FEjg10MEUsYcuft7Nq5g9ycLAbfMpAJEyYe84tMxOpcLhfDhw1l1ap0/4+SjIwdbN26jUcfHY/L5ar2uMpglpuTRW5OFm3btvEfL+ceBTUROes0SkkJdhFEakVqanMGDx7EzJdeJr+ggJkvvcw111xFbExMtfu73W6Kioq48YYB/teuu7YvqanNz1SR5QxTULOwyu7R/IICBt96W0D3UHr6an/3T0bGDnr1udrfDP7LbiSRc82Xy1fQrVtXf4vD0XWgV5+rA1onjve66owEW/9+1wMwa1ZawPPquFwuIiMjmf/+gmq3V3anVtcteqz6MHTYvcx86ZWA+nB09+rRXbHFxcX+9zj6PHJ6KKgF0cRJkwPG3cQlJDNx0uQq+8XGxDD4loF8uXyF/7Uvl69g8C0DAZj50svMmzuH3Jwstn7/Ha/+a5YqjpxV+g24KaAetGrdnm3btwfsk/b6bFIaNycuIZlV6avp06c34Pti+urrr/nowwXk5mRx/30jmP/+AtxuNzNfeplnJk4gNyeLpZ9/Smpqc3+rheqMWIXL5WLwLYNY8MFChg8bWmOXZ6W77hrCqsPjNn/5I+PF6TMZfMsgf7co+H7011RPKm3bvp369euRm5NFly6dmTJ1GtnZ2f7hBs9OnuQv12uz0hg+bCi5OVkM6N+vxtAotUNBLYjGjxvrr0yVj/Hjxla774UdO/rHMVSOYejTpzcZ2zNIe302rVq393/BvfvefPLz88/w1YicvIUL3guoB1u//46WLVoE7HP0GLUJT/2N4cPvIyNjBy6XizvvuJ0Xp88kLiGZEfc+QHZ2NgDdunWl34CbAiboqM6I1eQXFPDqv2bxx7uGMPOllwPGXlY3aSA2JoY5b7/J1yuW8fD4R/29K/kFBaxKXx3ww2fipMns3JlZYz2pfK+WLVr4f/zkFxSwdeu2GkPj/feN8He1Xt6je8B5pPYpqJ0lUlOb07VrF9Zv2MD6DRsCxjAc/QVW+ejSpXOQSyxy+jRsmEyjRink5+f7Z4Re3qM7uTlZLFzwnn+/QQNvJjcni507MwNaH1RnxEpmzUqjVauWDL5lEAAfLPzQv230qJH+v9FfTi5LTW3O0s8/pWuXznz++RIA6kZH8/WKZQF/26NHjTxmPRFrU1A7i1zeoztz5rzDnDnvcGHHjgCktkglc9duvv12I+DrBnr9jdn6dSPntN27s8jM3EVsbCyZu3Yx5M7b6dDhAtxuN3P+9w7gqwuLPvoY8H3ZjR83lsxdu1RnxFLS01ezKn01d901xN8F+sKLM2rsis8vKGDM2HHVLk8TGxNDq1YtA7oiF330MRkZO2qsJ9Wp6TyqI8GhoHYW6dDhAho1SqFr1y7+ZufYmBgmPPU3Hh7/KHEJyVx7/QAuu/TS445xEDnbHD1G7e6hw5nw9ydJTW1Onz69ydy1m5TGzbn2+gF06HAB4Bv3Uy821t8FlJ2dTf9+16vOiGVkZOzwdV3eMtDfQ9KlS2cG9O9XpQu0UmxMDMOHDeXmgYP9f9vgaz0GuO/e4WRnZ/u3HTp06Jj1pCa/PE+92FjVkSAxTNM0g10IEREREalKLWoiIiIiFqWgJiIiImJRCmoiIiIiFqWgJiIiImJRCmoiIiIiFqWgJiIiImJRCmoiIiIiFqWgJiIiImJRCmoiIiIiFqWgJiIiImJRCmoiIiIiFqWgJiIiImJRCmoiIiIiFqWgJiIiImJRCmoiIiIiFqWgJiIiImJRCmoiIiIiFqWgJiIiImJRCmoiIiIiFqWgJiIiImJRCmoiIiIiFqWgJiIiImJRCmoiIiIiFqWgJiIiImJRCmoiIiIiFqWgJiIiImJRCmoiIiIiFqWgJiIiImJRCmoiIiIiFqWgJiIiImJRCmoiIiIiFqWgJiIiImJRCmoiIiIiFqWgJiIiImJRCmoiIiIiFqWgJiIiImJRCmoiIiIiFqWgJiIiImJRCmoiIiIiFqWgJiIiImJRCmoiIiIiFqWgJiIiImJRCmoiIiIiFqWgJiIiImJRCmoiIiIiFqWgJiIiImJRCmoiIiIiFqWgJiIiImJRCmoiIiIiFqWgJiIiImJRCmoiIiIiFqWgJiIiImJRCmoiIiIiFqWgJiIiImJR50VQyy8oYPCttzH41tvILyiodp+MjB306nM178yd53/N7XYzZuw4xowdh9vtDtg/PX01vfpcTUbGDv/zuIRk0tNX11iOo9+jskxTpk47ZtmnTJ0W8D7HO3dcQrK/vJXlP/qaRERE5OzhCHYBTpfKADR61Mgatzdu3IhBA28GYP77C4iPj6dPn95MmTqNiZMmB+yf9vpsAIbceTtPPflElfN9uXwFAP0G3BTw+sIF79GlS2f/e2zatJlGKSk1ltvtdvPYXx73v1+lS7v3rHb/yvLk5+f7ruvZSbw2K40lS79g0jPPsmnTZtJen83Klavo0OECwsPD/dcsIiIi1nZOBrX8ggJWpa9myZKlZGdnM+qhI2HNXeJmzIRxpL0+m969e9GnT28+/3wJEydNZuGC95gz5x2ys7PZ+v13hIeF8dhfHgfgqSefwOVyAQQEuUu792TKs5PYunUbW7//jtiYGMDXwnX30OH+983I2MGCDxYy5M7b6dDhAopLSgLKnJGxgzf/8xbjHh7Ds5Mn8ezkSUyZOo0FHyzk1Zdnkpra/JjX/OXyFVxycSeuuvJKPli4iHqxsXz04QIe+8vjdOvWleLiYl6blcaA/v1O/QMWERGRM+KcDGqxMTHMeftN3pk7j08+WexvbQLY8O23pL0+O6Cla+fOTOBIa9iM6c8TGxNTpbuzUmUrXWWImv/+An7/+1uZMGEiSUlJ1bbiVbam3X/fCFwuV0BQqwx1mzZtpl27tgwaeLM/2A3o3++4Ia0ymHbt0pkGDZKY8/abAP7y5+Xt5/MlS7nk4k7cd+/wY51KRERELMTSQS0tLY3ly5cD0KNHD4YMGfKrjh808GYGDbw5YFxa165dyM3JCthv9KiR3HjDAO4eOpxLLu5E61at6NXnajZt2nykLIe7ImdMf54+fXqz6qixaKNHjSQjYwffrFnLMxMnVClHevrqKl2plSZOmszESZNp164tX69Y5g9llcHumYkTqu2KrbRwwXsALFmylK6HgydwzGOObh0UERER67JsUEtLS2Px4sX+55X//0TCWnr66ipjxSq1at0+4Hlly9r89xcAMHzYUFJTm7P080+Pef4lS5YCcPfQ4bz68kzWb9jAJRd34vutW5nzv3f4w5A7/ftXjl+rSeU4s8rw9M7ceQEha/Sokf5WusoxbN+sWcurL8+kYcNkf/fsqlXp9OpzNfHx8cyc8QKNGzdixL0PVDm/iIiInB0sG9QqW9J++dqJBLUuXToHtJrlFxQwfMT9AMyc8YJ/HFmlo1u8KsecvTYrLaBFrdK7c+fw3vz3AWjXri29e13BzJdeJnPXbsaMGklsbCyvzUojKirKf0zjxo3854TArs7x48ZW6SrNy9vPlGcnMXrMuCrv/+L0mWTu2s28uXP815GUlAT4Wgsrw9nRgTTt9dmkvT6bdu3antB4NxEREbEGywa1Mylz1y7gSMvW7t1ZvDYrjRnTn/fPkKxspQsJCSEpKYnx48ay4IOF3Pb737F+wwbSXp/tb2UDAkJe5Ziz12alMeLeBwDo3esKaNfWv09lmGyU0pCnnnyCb7/dCPha46prHawMYkPuvJ3f/+5WioqK/Nt69+7FzBkvMOtwMBw9aiTp6at5ePyjtfJ5iYiIyJlh2XXUevTocUKv/VLl2mFxCcn+R6vW7VmyZClLliylVev2AdvGjB1H/37Xk5uTxbOTJ51Q92Dfa67m4os7+Z/v3JnpH2OWm5PF1yuWMeTO26s9dsb058nNyWLmzBeJj4+vsj0pKSmgDJf36E5uTpb/MX7cWHr37sXW77/zl7lTp4uIjIz0H7Nv3z5mzUqjqKiIiZMmE5eQXGNXsIiIiFiXZYPakCFDuOqqq3C5XLhcLq666qoT6vZ0uVw8O3lSQLjZ+v139O7dKyDgVD4qw1nlArRxCcm8+Z+3ABhx7wP+QHd00Gnfvh3hYWH+56NHjWTp55/6uxRTU5vTrVtX2rVrS2xs7DHLm52djdvtJn9/Pvv27aNx40Yn83EF2LRpM40bNyIyMpLx48aSm5Pln3QgIiIiZw/LBjXwhbVXXnmFV1555VfP+Pw1pkydxvAR9zNzxgvk5mRx2+9/Bxxp/TrRoFN5d4K4hGRG3PsA9983osbxYLExMQy+ZSBpr88mpXFzLu3e07/g7i8d3Uo4cdJkunbpXGWcXaWdOzMZP26sv8tWLWoiIiJnL8M0TTPYhZBTV92dGI5+rXKMmiYTiIiInD0U1EREREQsytJdnyIiIiLnMwU1EREREYtSUBMRERGxKAU1EREREYtSUBMRERGxKAU1EREREYtSUBMRERGxKAU1EREREYtyBLsANSk8VErBwRI8Hm+wiyIWYrfbiKkTRlREaLCLElSqH1Id1Q+Rc49lg1rBwRJi6oTjdNqDXRSxkPJyDwUHi8/7LyLVD6mO6ofIuceyXZ8ej1dfQlKF02lXKxKqH1I91Q+Rc49lg5qIiIjI+U5BTURERMSiFNRERERELEpBTURERMSiFNRERERELEpBTURERMSiFNRERERELEpBTURERMSiFNRERERELEpBTURERMSiFNRERERELMqyN2W3Eq/XpLS0lNLScrzn2W30bDYIDXUSGhqKzWYEuzgiIiLnFQW14yh1l7Jhww/s2b2PwoMleDwewAx2sc4QA7vdTlSdMBo0jKdjx2aEukKDXSgREZHzhoLaMRQVFfPeO8soLnYHuyhBVE5JiZt9OQVs27KTmwb1JDIyPNiFEhEROS9ojFoNSt1lfLlk/Xke0gIVF7v5csl6St1lwS6KiIjIeUFBrQaZO3PIysoNdjEsJysrl8ydOcEuhoiIyHlBQa0G27fuwus9X8ainTiv12T71l3BLoaIiMh5QWPUarAvtyDYRbAsfTbya+zNK2bW3AwWLdsd7KKclMT64Vx3RTJ33dwi2EURkfOQWtRqUFZaHuwiWJY+G/k1zuaQBr6gueiLLNZtyQ92UUTkPKSgJiKn1brNZ3/A2ZtXHOwiiMh5SkFNROQE7M1VWBORM09j1E5QUoP61KtXx//8u40/VNnH6bTTsFECEeEuAPbu3U9e7gHfthAHrVo1quHsBh7TQ5m7nJLiUtzuUg4cOITHU/NtEJxOB9F1IwgNDSE83EVIiBOjmhsHHDhwiF2ZR2ZpusJCqRsTSUREGKGhTmzVHXSUvLwD7M3ef8x9RERE5PRQUDtBTZolcUGH5gCYplltUHM4nXS8sAXxCTEAfL3iO39QCw9zcdnlHY77Pl6vSfGhEjJ35rDq602Ul1dU2Sc2NopOl7QmuWEczhAHhmGrNqQB/JCR5Q9q9erX4bIeHYmLr4vdbq/xmKNt2viDgpqIiEiQKKgFiWmamP7VP0x/2LLZDCKjwmnbvikNG8Ux73/LKCs9ssCsw+Hgyr5diImJCjifbykREwhMX5VvEeIKoVfvi6kXF32MclRTTt3eU0REJGgU1IKgosLD91t+oiC/0P+a0+kkOjqCps2ScIX57qdZp04kF3VqwTfpW/zdoN26t/OHNK/Hy+7d+8jff4CSknK8Hi9eM7C79OCBQwA0SIwlKjrC//r+vAP89FM2pSXleL1ezBruX1pQUFjt6yKn6q6BLVi/eb+lZlPeNbAFi77I0uQBEbEMBbUg8Hi8ZP6Uw+5d+/yvGYaBYcAPO7K4fsBlGIf7JVMaJbJp448UFRXjDHXS8qhxbjt/2ssXS9ZRXl6BeYxmMcMwiI6JIiTkyD/3l8vWs2+v1kOT4Lnr5hYsqh9Gdq6bpDjfuM7K0JZYP9z/GkB2rpu9ecUk1g/noraxLFq2u8o+Rx9/tIvaxPqPr3z+y/0r97muZzIAs+Zur8UrFRE5eQpqFlHZBZm1O5cd23eT2jIFgDrR4YSFh1BUVEydqDBstiN9kd9v/omysuOvaWZiYrcHTvD1VNQ8UUHkdKsMS0+/9C3PPdbN/3xvXjFPz/yWC9vWC1hg9umXvuXCNqlc17MhANf2bMhHy3bzyLDAcZ89b/sw4Pl1PRvyyLAOrNuSz4NPreSiNrE891g3//ZZ87azfvN+nnusG4MfXMqiZVlc2KYeoKAmItag5TlOgmEYhLpCqj5CnNhsp/6R/vhDtn9wmcNhJybWN9s0NCSEo8egucvKCQlxHPPhcNjBhEOH3AGzSHv07EjjpklE140iMjLM/wgPDyMkxHnK1yByPEd3L67bks/gB5eSWD+cC9vW87/+4FMrefCplazbnM9FbWN5+qVv/YFr3WZf+NqbV8yiZbt58KmVVd4jMS6MvXnFVVreHnxqJYuW7fa3oImIWJVa1E7SbXf2rfKaYRgBLV4nq6iomLLycn9gqhMVDvhC29EzNW+46fJjLuEBsPPHbJZ8toZ9ewsoKiomOjoSgITEWPpe17XK/qYJFRUV7M89wLq128janYvXq9Y3qV2JceEBz/fmFrM3rzggvO3NKw7oykysH86FbWKZdVRAq9x/b15Jtd2eifXDWLc5398SVyk71836LVVfFxGxGrWonSSHw17lYbfb/GPLToVpmng9R8acOZx23//5xantdttxW9QquzwLCg6yZvX3HDpUcsz3NgzfGm2JDepx5TWdaX94SRKR2nRtz4YBdyxIjAvnroEtSKwfzvrNR5aDeWRYBx4Z1oHE+uGs2+JrVbvuiuQTnoBwUdtY1h81Dq1SUpyLa3s2rDJpYP3m/STFuQL2FREJJrWonaTSkrKqLxrgDHGecquaYbNhsx85R0WFp/oylJZzzLU1gPKKI+uw7dieRU52Ac1aJNOwYRyu0BCMo8au2e0G4eFhOA8Hw5AQB527tubHHVkUFmoWnNSuvXlHfjT4wlELFi3bzbot+VzYtt7hiQO+7bPmwtMzv+WR4R246+YWXNczmcEPLq1yzsoxa+u35PsnHKzbnO8/Z2UIrBynVm13af3wKq+JiASLgtpJME2TN9I+qvJ6WLiLa/p2Ju7wgrcnKyLCFTBOrKjIXe1+H7y/nAMFRccuq/dIkDNNk8LCQ2xYu40Na7dVu3/dmCh69rqIxCRfi4LdbielUQKbN/34ay9DpEb/nruNR4Z38M+uXLc5n1lz05nzXC9/C9jevOKAMJZYP5ynZ37LdVckc9fNLXzj1H7RsnZR26otYXcNTPW3kFUGtQefWhkw49P/HnG+ljsrLRkiIuc3dX2eJK/XW+3j2O1bJ6Zx48Qj7+Pxkr//QPVl8HipqPAc8+H5lePLfi4o5IftuwNeqxOtFgY5/SrHpCXGhVXZllg/nDnP9SIpzsWiL7J8r8VV/bsc/OBSBj+4lKdf+tZ/nsrw9svlPqpT3XuLiASTWtQswreOmkFsvShaHF6aA6CwsJiS4tIzWo4QV+Cszwot5SFnUGL9MH+3aGUX5UfLfD8eHhnewT+27egxbjWdZ9Gy3Tz90rdVluUQETlbKKgFgd1uI6VxApGHZ3MaBjgdDqKiI2jWvAG2o8aN7c3eT0nJqQc1m81G46ZJhIZWv/SGYYDDbieyThjNUwNnwu3dk3fK7y9ytOxcN4n1w7muZ8PDMz59wWxv7uFZnLklAa1ee3OLmTVvOxe2qedfpqNyIsC6zfnsza1+kkxlN2p2rvtwa114td2alVR3utMAACAASURBVK9d2KaevwwiIlagoBYEDoed9hc0C5gHYMD/Z+/Oo6MqDzeOP0mALEBIJkAICYusLghUJYSCyCJYRSuy1SqLWlFA/RUxCHWpbV0KskirLC6tsriUzSCilr0KkgUsRLFAEoQsQIBMwpZMCMn8/hjmMpPMJEEIc4Hv55ycQ+a+9943OXOZJ+8qv3KTEM6cKdUPqRleJxOcj4AAf910cztjTTZPnBNWXWeuHs4tUE4OQQ0X16GjjuDVpFGw/vp2qvG667+//Nq9C94RpiouROt6jrfXDx0tNCYOeLruf19JNCYRfFXuOAD4EkHNR5xbRnly5kypDufmKylxp/Lyjl+8e/r7V3tGalmZXbkHrfrPhu8q3Z4K+LnMtk2Ta5gDALMgqFXTvr0HdeL42e4VbwGrpETfp2YoONgxaPnQwSPGsSJbsb7d9IPX6/vZ7Tp95oyKCm0qLi5RwbGTFZYAKcg/qS2bdxrfnzqPsWtlZWXa8d80BQbWqbyg3S6brVinThXpWMEpFRZ6HnQNAABqHkGtmg4eOKqDVYzVKikpVUaa526T08Ul+iE1/YLqcPz4qZ99jdLSMqXtzryg+wMAgEuL5TkAAABMiqAGoEaV3xD9cuVpMV0AqGkENS/q1KFX2Bt+NzgffxjT8bLeO7NJwxBjv1EAuNT4xPWiUeNw5WQfqbrgVahR4wvbIgtXlyYNQ1hsFgB+JlrUvGjfvrn8/fn1lOfv76/27Zv7uhoAAFwVSCJexDSPVNPohr6uhuk0jW6omOaRvq4GAABXBYKaF0HBddTjtk4KCWGTZqeQkGD1uK2TgoKrWIsNAABcFIxRq0RoaF0N/k0vpW5PV3b2YZ06aVNpaam39W6vOHZJAQEBqlsvSDExjdWxcxsFBwf6uloAAFw1CGpVCA4OVJeu1+nGTq1VXHxaZWVeNya44tgl+ftLgYF1FBRUhzF7AABcYgS1avD391dISJBCQq6M9aAAAMDlgSYSAAAAkyKoAQAAmBRBDQAAwKQIagAAACZFUAMAADApghoAAIBJEdQAAABMiqAGAABgUgQ1AAAAkyKoAQAAmJRpg1pAgL9KSkp9XQ2YTElJqQICTPu2vWR4PuAJzwdw5THtXp/hocHKP16o0tIyX1cFJhIQ4K/w0GBfV8PneD7gCc8HcOXxs9vtdl9XAgAAABXRRg4AAGBSBDUAAACTIqgBAACYFEENAADApAhqAAAAJkVQAwAAMCmCGoDLjs1mU/zESWoUGa3k5JRKyy5dtlwzZs66RDUDgIuLoHYJefvAmDFzlpYuWy5JSk5OUaPIaLcv5zEna36+ht3/oFsZ53XT0zPUq08/NYqMVq8+/ZSenlHzPxiuep7et64Baumy5W7HXN+bnt6znt7jrs9Daur3kqSs/RmKje1yUerv6XnxVA/n8+gMi1UFRQC4EAQ1Exo1criy9mfoSG6OjuTmaP/+TMVPnCSbzWaUCWvQQFs2f22UeWbCeKWnZ+i551/Ue+/M05HcHC1ftlhbEhN9+JPgauL6vl21MkHTZ86SNT/fOD550kTj/bpx/Rq1adPa63vWEh6uxZ98aFzL9dpDBg9SZlaW4uK6Kigo6KLU/ZtNm9W2TRut+GxlhWOuz9ruXT9o8ZJlhDMAlwxB7TLwzITxioqK0uervqi0nNVqVdeusWrTprUkyRIerhHDH7wUVQTctGnbRmENGsiaZ620nBnes9b8fB08eFCjH31Eu3fvcQuX5VnCwzVs6GBlZmVdwhoCuJoR1C4Tt/borsTEJLdWtfIsFouSkpLp7oTPrV+/QaGh9RUTE11puZ/znp0xc5bGjntKY8c9pWH3P6iDhw5V6II8n3Fp69dvUFRUlDp2vFGhofW1fv2GSsvv359Z7boCwIUiqF1iU6ZOqzDmZsrUaVWeZ7FYdPz4CRUWFUmSCo4dU7fuPd3GzbRp01rDhg1Rt+49K3SVAjVt/oJFataitRpFOsLZ9GlT3bomXd/7w+5/UNb8/J/1nn1mwnjNnfOm5s55U4s/+VDhYWE/u842m02JiUm6tUd3BQUFKS6ua6V/EKWnZygpKVmdO3X62fcEgPNBULvEXMfpOL8mT5pY5XlWq1WhofUVEhwsqeIYtSGDB0mShgwepCO5OYqKilKzFq0rTEQAaopzHNmqlQl6a/bcCq1kru/9xZ98KEt4uCTfvmezs3OUmZkli8UiSercqZMyM7OUnZ1jlHH9o+jRx8botVdfNrpqAaCmEdQuE99s2nxeg6efmTBeWzZ/rdWr11Y65ga42GJju+ieuwd4HJhfGV+8Z1d8tlIbNv7HCGLduvfUho3/cau76x9FzkkQAHCpENQuAzNmztLBgwd194C7Ki23dNlyWtBgCg8/PEpJySnVWuPsQt+zQUFBioqK0jebNktyTA5YvGRZledZ8/OVlJyiuXPedGvhXrUyQUnJKfyBA8AUCGom5DrWp1FktFq0aF5hvI8nQwYP0v79mcZ5jz42Rs9OfMboYgIuFefsSNclOsqPz0xOTrlo79l7f32PVn6+So0iozVm7JPq07tXleekp6VLkvr06e32eseON6p5s5gqJxUAwKXgZ7fb7b6uBAAAACqiRQ0AAMCkCGoAAAAmRVADAAAwKYIaAACASRHUAAAATIqgBgAAYFIENQAAAJMiqAEAAJgUQQ0AAMCkCGoAAAAmRVADAAAwKYIaAACASRHUAAAATIqgBgAAYFIENQAAAJMiqAEAAJgUQQ0AAMCkCGoAAAAmRVADAAAwKYIaAACASRHUAAAATIqgBgAAYFIENQAAAJMiqAEAAJgUQQ0AAMCkCGoAAAAmRVADAAAwKYIaAACASRHUAAAATIqgBgAAYFIENQAAAJMiqAEAAJgUQQ0AAMCkCGoAAAAmRVADAAAwKYIaAACASRHUAAAATIqgBgAAYFIENQAAAJMiqAEAAJgUQQ0AAMCkCGoAAAAmRVADAAAwKYIaAACASRHUAAAATIqgBgAAYFIENQAAAJMiqAEAAJgUQQ0AAMCkCGoAAAAmRVADAAAwKYIaAACASRHUAAAATIqgBgAAYFIENQAAAJO6IoNacnKK4idOks1mU3p6hv78l1dks9mUnJyiRpHRSk5OkTU/X/ETJ8man1/h/PT0DPXq08+4hqfrN4qMNr569emn9PQMWfPzNez+BzVj5iy38kuXLXcr7/xyLbd02XLjOgAAANIVGtRCQkKUmZWt2XPmafuOHXpr9lzNnjPPOF5YVKTXXpui+QsWaf36DZKkGTNnGQGqW/ee2rnzR81fsEjNWrT2GKxuuOF6bdn8tSZPmqjGjRvLEmHxWp8hgwcpa3+GRo0crsmTJupIbo6O5Obo4YdHadj9D2rpsuU198sAAACXrSsyqHXocINee+Uv2r17j/r06a1VKxOUlJyiPKtVkpSZmanMzCxt2fy1hgweZJw3auRwZe3PMIKU88sZssqzWq1KSk5R19gusoSHV1qn7Owcbd32nVq0aH5xf1gAAHDFuiKD2tJly7Xis5V65+05soSHKza2ixZ/8qEiLI5Wr2vbt9fif32kNm1au51XvgXN+dWsRWvNX7Cown3yrFYdPnxYt/boXmWdtu/YoZ07f9TYcU8Z101KSr44PzAAALgimTqozZ8/X6NHj9bo0aM1f/78ap/XsGFDrfx8lZYuW+42nmzAPQMlSQPuGeg2tszpfFvUjhw5op07fzS+t+Y5gtvBgwfdxrZZ8/O1eMkyzZ3zpo7k5mjVygTdcMP1RnAEAADwxLRBbf78+Vq7dq1sNptsNpvWrl1b7bDW67aeen3Ka1q8ZJnR3blqZYJb+Jo7582K9zzPFrVfduumyZMmavrMWbLm58tqtWrnzh+VmZWtwqIio5xzHFyfPr0lSd9s2qzGjRsrIiLivH8vAADg6mHaoLZp06ZqveZN+e5OZyua82vsuKcqnHO+LWqSdGuP7jp8+LCseVZlZmWpd6/bdPjwYaWnpRtl9u/PVPyE8Xr//flqFBmtKVOnadjQwQq3VD6uDQAAXN1q+boCNcFms+mFF1+SJN199wBJjha12NguRpmly5brrdlz3c6bv2CRx5Yzp8mTJhr/3rnzR3Xr3tN43RJh0eIlyzRs2BDt35+pbzZtNu73zITxstlsatO2jSQpKTnFaF0DAADwxrRBrUePHlq7dm2F16qjsKhImVnZ6hrbRSHBwZJkjE9zdcMN1xv/fmbCeD0zYbzxfXJyiqbPnKV5c9/yOKPzhhuu13vvzDMmJDiX2OjTp7eseVY99/yLSk/PMI4HBQXp81VfaMrUaVq1MsG45uJPPnQ7HwAAwMm0XZ+jRo3S7bffrqCgIAUFBen222/XqFGjqnVuelq6NmzY6DYbs7Ixaq4L3DoXrHV2nVrzrHrs8XHGMU8L5Dpb51575S+yhIerTZvWGjZsiJ574Y9G+aXLlmvsuKc0d86bbi17rqpajw0AAFxdTBvUJEdYe/fdd/Xuu+9WO6RJjsH6vXv3MroaXTkXth077ikjGK34bKUaN26sCU+PV/NmMZoydZrb4refJqxQ3759JEnvv+8+oSE9PUNvzZ6r16e85rbcx90D7lLzZjF6//35Sk5O0dhxT2nVygS3ddtsNpviJ04y6lOd9dgAAMDVw89ut9t9XQkAAABUZOoWNQAAgKsZQQ0AAMCkCGoAAAAmRVADAAAwKYIaAACASRHUAAAATIqgBgAAYFIENQAAAJMiqAEAAJiUaTdlP3GqWPnHi1RaWubrqsBEAgL8FR4arPp1A31dFQAAapxpg1r+8SKFh4aodu0AX1cFJlJSUqr844UENQDAVcG0XZ+lpWWENFRQu3YArawAgKuGaYMaAADA1Y6gBgAAYFIENQAAAJMiqAEAAJgUQQ0AAMCkTLs8B64sxSXSlu9L9e/kMh2yOmZtNrH4645Yf3W7MUCBtX1cQQAATIighhqXd9yuvy0uUYO6fhozsJaaNfaTJGUdtmvphjNa/12pfj+stiJC/XxcUwAAzIWuT9SoQptd7644oy7X+WvC/bXVOFya+uFpTf3wtBqHSxPur60u1/nr3RVnVGiz+7q6AACYCkENNerr7aVqUE+6M66W/Dw0mPn5OY41qOcoCwAAzqHrEzXGdlr6Ya9dA7oHqNbZTSaCA/30hxF13MrVCpB63RSgVZtL1esmKaiOh4sBAHAVokXNi337ftIfX3xBLZvHqH7dIDWJbKiHRo3Qtq1bVVbGFkbVUVRsV9FpuxqH+7m99teFp/XXhadVVHyuq7NxuJ+KTtvdXgMA4GpHUPNg794MPTRqhGZMf11Wa57Cwy0qOX1a//rkYw1/8Lf68ssvfF3Fy5bttHQk3/FlO+3r2gAAYG4EtXJKSkr0u0ceUnJSklq0aKkvv1qj1O93aktSinrceqv279+nx0b/TvlWq6+ranrBgX4KruOnw/lVt5IdzrcruI6fggOZ+QkAgBNBrZzkpCSl7tihxo0j9c67/1D3Hj0UFh6udu3aa9GHH+uWLl1kzcvTvHlzfF1V0wuqI3Vo5aeN35XqTCXzBM6UShu/K1WHVn6MTwMAwAVBrZz//e9HlZSUqF37drqxY0e3Yw0bNlJc3C/l5+entLQ0H9Xw8tKzc4COnZS+TDwju90R3hqFO76C6kh2u+PYsZOOsgAA4BxmfZZzpvSM7Ha7AvwDVKuW+6/Hz8/PeK20lKUkqiMkyE+j762lvy0u0Z7MEg3pXUuTHnQ0mzkWvC3RsVN2/X5YbYUE0e0JAIArglo51113verUqaO0tDRt/+9/1b1HD+PY4cO5Sk5OlN1uV7t27SqcW1JSogMHcnTo4CGFW8LVrFlzBQcHX8rqm1JEqJ+eH1VHW74v1byEM2whBQBANfnZ7XZTrofwU7ZVUY0bXPL7FhUV6Y7+fbU1JUXXX3+9ps14Q926/VKZmfv1+6ee1KZN36hu3branvqDmjSJMs7Lzs7SuDGPKysrS8eOHVPdunUVHR2tv735ltq3v/aS/xxXsoOHj+maGIuvqwEAQI0jqHlw6NBB3dr9l8rJyVb5X0+DsDC9/8EC3XnnXcZrO3fu1G+GDlZGRrpCQkIUGtpAp06d1MmTJ+Xn56flCZ+pf/875Odpaf4aVlZWprKyMgUEBPjk/jWBoAYAuFrQ9elBkyZRWrFyld57523Nn/++CgsLFRAQoMFDhurB4SPUt+/tRtnS0lL9+aUXlZGRrhtuuEHPxD+ruG7dtHPnTs2bM1vr1q3VX/78kq677jo1b97C7bwvv/xC//txp6697nrdc8+vK9TDbrdXCFfFxcWqU6eO8brdbpfdbpe/v/u8kJKSEn311ZdKSU5WUVGRGjaM0LOT/qCsrEx99tkKFdts6t27r266+eaL+asDAAAXES1qlSguLlbPHt2Umpqq0NBQ7d2Xpbp167qV2bs3Q507dlBwcLC2p/6gqKimxrHc3ENq2/oaSdKKlavUu3cf41hJSYnGjnlMH3/0oYYO+40+mL9QkrRu3VoVnjqlTp0767MVCRo56mF9vvIz3dixkxb/6xP97tFHVbduXdWuVVt79+5VQsKnenT0aDVtGu02+eHT5cs05vHROnHihOx2u0JCQnQkr0CbNn2jEQ8+oGPHCvTXqa9r7NgnavJXWCNoUQMAXC1YnqMSgYGBqlXbMcrdz8+vQkiTpN27d6ukpESdOnd2C2mSFBnZRI/87lGVlJQodcf2Cufa7XaVlZUZ3atlZWWqXbu23p43V8XFxdqbsVe1atXSqlWf61hBgX74PlUtW16jOrXr6L333tHmzd/o8OFcbf/vfyu0vD09/vc6fvy4GjZspNiuXXVDhw7GsTJ7mdt9AQCAORHUvDh27JgWLpivnOwcSZLNZtPs2W/q4MEDbuVcuyA9KSkpkaQKXZPeypaWlupPf35Zx48d12/u/62ys7M0afJzOnnqpAbeN0hr165Rka1Ijz76mPr07acOHTqoceNIFRUVlat/gSTppT/9WavXrNey5QnVqgMAADAPxqh5kJGRrsH3DVR6epqxXlpxcbGejX9Gb8yYoX9+MF89e96mM2fO6D8bN0qSvtu2TflWq8It57rkjh07po8+XKRatWqpw40dPd7LVWBgoHr16i0/Pz+VlZXJz8/PGH/WoUMH43V/f3/5+fmpQViYrrvuOkneg+C1116nwMBANWrU+EJ/LQAA4BIjqLkoKyvT6tX/1u8eeUjWvDxJUu3atVW3Xj3Ziopks9mUk5OtX999l8aMfUKbNn2t77ZtkyQVFhaqT+/b9JeXX1F0dIyO5h3V3NlvyWazqfMvfqFrrrmmWnVwttA5g1f57wMCAtzKXikzOQEAQEUENRe5uYf02qsvy5qXp4CAAN1xx680YuQoRUY2UX5BvlYkfKqPP/pQxcXFevPvs1RW5li4tUEDx6SH3bt36XePPKSwsHCdOHlCx48dU3BwsP740p/dZnwCAABUB0HNxdo1a7Q1JUWSdOedd+m9f7yvBmFhxvG+fW9XgwZhmjP7TZWWlsrf31833Xyz5r39niIiLJoY/4zWrVurgoJ8+QcE6Lbbemn23Hm65ppW51UP55IbknuXpt1u1+nTp4110WrXrm10h7qWdd3eqrSsVGfOnJGfn59ba5ynezqv4+fn53bf0tJSnT59WpKjhbFWrVpe6wgAAC4egpqLT5cvc+zzGRCgyX943i2kSY4xZE8+9ZQ++fgjHTlyWE2bRmvtuo0KDAyUJH0wf6FycrJ19MhRhTYIVbNmzY1j1bV79y599eUXKi4uVkREQ40c9ZBq166tzMz9+uyzFdqakqJjBQWKatpUPXvepv7979C7774tSXrq/8ZLkt59Z57OnDkjSXrv3Xf0xapVql27tv7y8ise72mz2fTZigT9+OOPCggIUJ8+fdW9Rw+VlpYqOSlJX375hXbt+p/sZWW69rrrdeedd+nY8WNK3bFdFkuERj/2+Hn9jAAAoHoIai62b3csoREV1VS/uOkmj2ViYpqpRcsWOnLksE6eOukWxAICAtS8eYuf3c15rKBAT4wbo6TERNWtV0+vvz5dAQEBSkvbo7FjHlNyUpIxi1SSliz+l7p1+6XWr18nu92uRx99TH5+fvpw0UIjqC1Z/C9JUkhIiP78l5c93vfjjz7Uc89NVkF+vnr16q2Ro0bJbrdr+bKlev65PygnJ9tobfvii1VauGC+GjRooPT0NLVr156gBgBADSGouajOumI1NYA/Jydbvxk2RNu2blX9+vX1/PMvaOSohyRJ77z9tjZv2iQ/Pz9df/31urXnbapfP1Rff71R69evc+vqDKhVS+2vvU47d+5UWVmZ2rZtp7r16nps2Ss5fVr/+uRjPT3+/3T69Gl16NBBc99+Ry1atFRu7iG9/Jc/KysrU3Xr1lWXLrG6pUusrNY8rVm9Wnv27JYkI8ABAICLj6DmonPnzvrqq4M6ePCAdmzf7rFVLScnW/t+2idJql+vvk6fPq06depIcozlys09pLw8q0JD6ysqqqlxrDIZGel65KFR2rZ1qxo3jtRfXn5Fox56WJIjPL49b44k6cYbb9Qni5caY94OHTqoRx4apQ0b1hvXCg0N1Tvv/kMrP1uh4uJivfG3vysurpukiuPdPvtshX788UeVlJSoT5++mjPvbaM18POVK5WeniZJenrCM3rq/8YrNDRUZWVl2vLttxoy5D4V5Oef3y8YAACcF0aBuxh43yD5+fmptLRUU6a8puPHj7sdP336tObMni2r1bF0x4EDOerfr4/S0vbo6JEjemz073TLzb9Q3949Fde1i4YMGqjs7Kwq7/vf777Tpk3fKDAwUH986U8aMXKUcWzfvp+M7s5FH33iNjGhSZMoLfrwY7eto/z8/BQcHGy0+gUFBqlu3boVdlU4c+aMtnz7rQry89WhQwe9OXuOW5ft5ys/k91uV1h4uCY8M1GhoaGSHGHvl92767HHxlTrdwoAAH4+gpqLfv37G61oqz5fqdGPPqKVn61Q4pYt+uqrL/XMhPF6682/qbS01Ah0SYmJuq1nD9144/X66MNFOl1crHr16qustFRr165R544dtHbtmkq7VcvKHFs61apVS5FNmrgd+z411fi3p7FvlogIj1tbVYcxazMgoMLMzSNHj0iSOnRw7GPqys/PT7379BEAAKhZBDUXTZpE6YUXX1K4xaLS0lJ9tiJBDz5wvwYPHqgH7h+m9959RyUlJQoMDNT//f5p3dKli/z8/JRvtaogP1/XXnud3vvH+/r4k8X6YMEi9e9/h06dOqU/vvi89u/f5/W+DRo0UGhoqE6dOqUXnvuD9u37yTgWEdHQ+Le38WA/d5xYdHSMAgMDtfOHHzR1yl/dxroFBQVJUoWtqZwKCwt/1j0BAED1EdRc+Pv7684779LG/3yjli2vUUBAgEpKSmTNy1NRUZH8/f0VGdlEyxM+05Spr2vDxm80duwTkqTg4GCtW79RA+8bpK5xcbrzzrs0f8EiBQYG6vvUVO3b5z2o3fGrO/XPDxbIz89Pu3fv0j0D7jJmbcZ27WqU+/rr/1Q49/vvv9fJkyfP+2etXbu2JsTHa9DgISopKdH7//yH5n/wvtHKdt1110uSdmzfrryjR93OtdvtWvyvT877ngAA4PwQ1Dxo1669tiQm629/f0uNG0dKcqyh9sqrr2nzlkT16dNXklSrVi31u+MOSdJNN98sS0SE23UahIXptw88qDNnzuiH71NVmQED7takyc+pVq1a2rs3Q+N//5ROnTql2rVrG6Fp1IgHtXbtGp06dUrFxcVKSU7W4PvurdZsVW/mzH3b2F/0qSfH6fPPV6qsrEyjRj2sevXq6cyZM5owYbx2796l06dP69ixY/rg/X8ay34AAICaQ1DzIiw8XL97dLRimsVIcnQFPj0hXtHRMW7lnCEpwN/zqv8hwSGSZLSQVWbyH57Tg8NHSJI++nCRli9bKrvdrkmT/6DAwEAdO3ZMDz80Ur+643bd0b+vHvjtb5SdnXVBy4UEBQXplVf/qhYtWqqsrEx/fulFpaXtUYcbb9SQocPk5+en5cuWasig+9S/Xx/ddWd/TZ408YLCIQAAqB6CWiVKSkqMgGW32z2O12rXrp1q1aqlHTu268iRw27Hjhw5rPfee0e1atVSx06dK5xbp04dhYSEGGucBQYGKn7is7ruuuvl5+enifETlJ2dpd/c/1v94bnnFR0do+PHjmnb1q36bts2lZSUaPrMNxQSEqKQkBC3aweffa38tlH+fv4KCXYcq12rtiTp5ltu0dMTnlG9evX0008/aeaM6apVq5b++tep+tWv7lRogwb66ae9Sk5K0u5duxQdHaN7B96nkJAQBQUH/fxfMAAAqBTrqHmxa9f/9MH77ysjPV2SdOrUKf3fU0/otw88qF69ehuzJK+5ppX6979DX3yxSgPuvEOTJj+nW7p00a5duzRvzmydPn1anX/xC7Vq5b7fZ0BAgB566BH17t3HbTZnmzZt9fc3Z+vAgRxJ0t69e9WsWXNNmvycHnr4ESV8+qmOHj0iS0SE+vXrr5iYZmp4dsJBvfr1jeu8+eZslZaWqk2bNm73bX9te70+bbpRL6dHfveoGjZsaATTUydPKiw8XMsTPlPili369ttNstlsateuvfr1v0Npe/bovvsGud0TAABcXH52k/Zh/ZRtVVTjBj659+HDubrt1h7KzNzvNqPSz89P4RaL3v9ggfr3v8N4PTU1Vb/9zVD99NNehYSEKDS0gQoLT+n48ePy8/PT4qXLddddA2pkR4Or0cHDx3RNjMXX1QAAoMbR9VlOUVGR7v/NUO3fv0/t21+rT1es1KHco0pK3qZbb+2p48eOadTI4crNPWSc07FjR61c9YX69Omr6OgY2e12RUQ0VI9bb9WWpK0aMOBuQhoAADhvtKiV883XX2vgvXcrPNyif34w3vaD7QAAIABJREFUXz173mYcO3AgRyOGP6BvN2/WH1/6k/7w3Atu5xYXFysrK1OHcw8rLDxczZs3V7169S71j3DFo0UNAHC1YIxaOT/+uFMlJSVq27atbrrpZrdjTZpEKTY2Tlu+/Va7du2qcG5gYKDatGmrNm3aXqrqAgCAKxhdn+U4Z0mWlZW5rdQvOWZ+Osesld9yCQAA4GIjbZTTvv21ql27tvbs2aOdP/zgdiwv76iSkrbIbrdXmE0JAABwsRHUyukaF6cbOnRQbu4hjR3zmJKTknSsoEAZGel65KFRSk5KUrjFoscfH+vrqgIAgCscY9TKqVOnjv7xzw/0yMOj9N22bbq9by9FRDTUyZMndPLkSTVv3kKvT5uuho0a+bqqAADgCkeLmgdt27bT/AWL9ORTv1dYWLiOHj0if39/DbxvkBYu+kh33/NrX1cRAABcBVieA5cdlucAAFwtaFEDAAAwKYIaAACASRHUAAAATIqgBgAAYFIENQAAAJMiqAEAAJgUQQ0AAMCkCGoAAAAmRVADAAAwKYIaAACASZk2qAUE+KukpNTX1YDJlJSUKiDAtG9bAAAuqlq+roA34aHByj9eqNLSMl9XBSYSEOCv8NBgX1cDAIBLwrSbsgMAAFzt6EMCAAAwKYIaAACASRHUAAAATIqgBgAAYFIENQAAAJMiqAEAAJgUQe0ykZycokaR0YqfOEkff/IvzZg5y9dVAgAANYygdgktXbbcLWClp2eoV59+WrpseaXn2Ww2LV6yVKtWJmj6tKmqXbt2TVcVAACYgGl3JrjSWfPz9dwLf9TrU15TbGyXSssWFhVJktq0bXMpqgYAAEyCFjUfsNlseu21KRo2dHCVIQ0AAFy9CGo+MHvOPEVFRWnI4EFurzvHoTWKjNaw+x+UNT9f6ekZGjR4mOYvWKT213ao0E3q7D51dqnabDbFT5xkXKeqblUAAGBeBLVLbMrUaUpKTtHDD49ye92an6/de/boSG6OjuTmqGtsF61fv0Ft2rTW8mWLNWrkcO3e9YNbuHPtPn1mwnhJ0oaN/9GYxx/Tkdwcbdn8tVavXitrfv4l/RkBAMDFQVC7xCZPmqhhQwdrzNgn3QKUJTxcQ4cMNlrDpkydpv37M71e5+DBgxoz9knFTxjv1n1656/ukNVqVaPIaHXr3lN70tJkzbPW6M8EAABqBkHNB4YMHqSusV302mtTZLPZJDlmhP7qrnuM1rC5c96s9Bpbt30n2e3KzMoyXrPm52vY/Q/qm02bdSQ3R7t3/aB2bdvW6M8CAABqDkHNR54YN0aSY7yaJO3fn6l77h6gNm1ay5qfr8VLllV6/j13D9CC+f9UYmKSMQ7NmmeV7Hbd++t7JEnr12/QnrS0GvwpAABATSKo+UhQUJCee26ykpJTFD9xkn51R3+t/HyVGkVGa8zYJ9Wnd69qX2PxkmUadv+DskRY1LVrrLp176lGkdE6ejSPFjUAAC5jfna73e7rSgAAAKAiWtQAAABMiqAGAABgUgQ1AAAAkyKoAQAAmBRBDQAAwKQIagAAACZFUAMAADApghoAAIBJEdQAAABMiqAGAABgUgQ1AAAAkyKoAQAAmBRBDQAAwKQIagAAACZFUAMAADApghoAAIBJEdQAAABMiqAGAABgUgQ1AAAAkyKoAQAAmBRBDQAAwKQIagAAACZFUAMAADApghoAAIBJEdQAAABMiqAGAABgUgQ1AAAAkyKoAQAAmBRBDQAAwKQIagAAACZFUAMAADApghoAAIBJEdQAAABMiqAGAABgUgQ1AAAAkyKoAQAAmBRBDQAAwKQIagAAACZFUAMAADApghoAAIBJEdQAAABMiqAGAABgUgQ1AAAAkyKoAQAAmBRBDQAAwKQIagAAACZFUAMAADApghoAAIBJEdQAAABMiqAGAABgUgQ1AAAAkyKoAQAAmBRBDQAAwKQIagAAACZFUAMAADCpqzKo2Ww2xU+cpPiJk2Sz2bwebxQZreTklArH09Mz9Njj45ScnKJeffpp43++VvzESUpOTlFycorH85YuW674iZNkzc83ru3py9P9nOc3iozW0mXLL84vAQAAmN4VGdScYak6AUhyD2aNIqPVrEVrzV+wSJI04J6BbteZMXOWQkJCJEm7du+WJG3b9p22bvtOhUVF+mbTZvXu3Utt2raptI6TJ03Ukdwc42vL5q91ww3Xe6xPo8hojR33lCRp7LinKtQHAABcmWr5ugI1adXKBFksFj362Bh9s2mzBtwz0GO5F57/gyRHeHpmwvgqr7t02XJ9mrBCnyaskCTt3PmjJCkzM1MrP1+lnTt/VPtrO0iSRo0crkaNGmn6jDckScePn5AkzV+wSFOmTqv0Ps762Gw2vfDiS5KkV17+s4KCgqqsIwAAuPxdkS1qntzao7vRepW1P0OjRg7XqJHDKwQfZxejp69h9z8oa36+hgwe5NYCtmplguPaR45q584ftWplgnF82NAhmvRsvObOeVOjRg7XlCmvKjS0vtGitmplgm644Xpt2fy1juTmKDa2i1GXgwcPatj9DxotfPMXLFKzFq2r3VIIAAAub6YOavPnz9fo0aM1evRozZ8//4KulWe16rHHxyk9PaPSckMGD9KqlQkaNXK4svZn6EhujubOeVOS1DW2iyzh4UpPz9Bzz7+oSc/G64Ybrje6R11byKxWqyTJYrF4vM+UqdPUKDJaA+4ZqJ07f1S37j3VKDLabdxcVFSU5s19S71796rQVer8cg12AADgymLars/58+dr7dq1xvfOf48aNara13Dt6vzxx//p04QVCg2tr+eem1zped9s2qz5CxYpLq6rOnfqpLdmz3XrFl27br1ee/Vlo/yqlQkqLCpSZmamPv/8C2VmZUmSGjduLEvEuaA2f8Eio+tz7pw3NWTwICUnp+jZyc/pvXfmqU2b1pLkNsFh/foN2rBho+InjFdycooG3DNQq1YmENAAALgKmDaobdq0yeNr5xPUXMeo3dqju1q0aK6x455Sx443VnreMxPGG2UlxzizJ8aNMY6PeXy0rPn5GjP2ST35xFgjNGVk7FVhYZESE5NUv359dY3topDgYMVPnKT5CxZp1MjhmvD0eI2fEK9//3uNcX1J6ta9p2644Xq99848WSIsyszKVlRUlPbvz5TkHjqd/3aWdwY8AABwZTF11+fFdveAu/TkE2PVqFEjt9cLi4qUmZWtunXratj9D7rNspTkNjZsxsxZmjFzltpf20EbNmw0ZmH26tNPdrtdt/fto63bvtOGjf/Rvb++R0FBQZo+barRfWq1WiW7Xbfe2t1tbNqqlQkV6tuiRXM9M2G80c3pLOMcE7dx/RpCGgAAVzDTBrUePXpU67XzERQUpJf++IJ697rN7XVrnlWHDx/WTb/orMWffGgEo7lz3jTClHNywK09uuvhh0epd+9emjvnTWNiwi0336SYmGjFxETrlptv0s6dPxrj1Fx999//qnnzZmrevLnXejrrs39/ptvEAWdLmuuSId7WggMAAJc/03Z9Ors4nV2gPXr0OK9uT0lel+Mob8VnKyV5H/jvLNO4cWO1adtG+dZ8xU8Yr2cnP6ex454yuiCDgoI0Y+YsHT9+QvcNvLfC2LPjx09o06Zv1b//7QoJDjYmETg5Z5Fu37FDjRs31sMPj3JbLoQxagAAXF1MG9QkR1g733DmynWMmnQu6LgeDwoK0r2/vkcnT55UTEy0JGnGzFnGDM5RI4crJibaLTC9//584/iSxR/r889XGYFr8qSJeuftOcbaZ84QOGXqNLcJCcnJKW5jzJyTCiRp//5MY4YpAAC4evnZ7Xa7rysBAACAikw7Rg0AAOBqR1ADAAAwKYIaAACASRHUAAAATIqgBgAAYFIENQAAAJMiqAEAAJgUQQ0AAMCkCGoAAAAmZdotpE6cKlb+8SKVlpb5uiowkYAAf4WHBqt+3UBfV8WneD7gCc+HA88HPLlcnw/TBrX840UKDw1R7doBvq4KTKSkpFT5xwsvuwftYuP5gCc8Hw48H/Dkcn0+TNv1WVpaxkOGCmrXDuCvZPF8wDOeDweeD3hyuT4fpg1qAAAAVzuCGgAAgEkR1AAAAEyKoAYAAGBSBDUAAACTIqgBAACYFEENAADApAhqAAAAJkVQAwAAMCmCGgAAgEmZdq9PSDnWQj30RrIGdovWE3e19XV1AEnSjsS9mj5hiXKzrb6uiilFxlgUP3OoOsW18nVVAFwBaFEzsWhLiPHvHGuhD2sCnLNo5hpCWiVys61aNHONr6sB4ApBi5pJfZqYrQPWIkVHBOlAXpHmrErXuAFt3MIb4As7Evf6ugqmx+/o6tLqT4u8HotrGanXB3ZTz1kJXst89FA/Ld++V0u3Z3g8HhNWTx89dHul14hrGamPHupX/UrjskGLmgk9vzBV0REh6tI2Ql3aRUiSXh3RUQmJOUpOoyUDAC4n2QWnqjh+8oKO48pGi5qJJKdZNWfVHn0wPk6SNPuLND1xV1s9vzBVOdZCPXFXWyWnWfX8wlRa1wAA1ZJdcFLLtjtaeaPD6iomrJ7iWka6lVm6PUM5HgJldFhdxbWMVExYvQrXTNyXW+Gcri0jFdcy0u16gzu3cjv/bxtTPb4OzwhqJjH7izR1aRthhDRJStiSoyfuaqt742KUkOj4d2xbi2LbWjT7izQ1tQTrvrgYH9YaAGBW2QUn9cAHaz22yDm7U51Bafn2vUrcl+vxOjFh9TS4cyv9vldHSVLivlw98IHncZi/79VRcS0j3a6XU3BKrw/sZpRZtn2vsgtOqquHAIiKCGo+lmMtVEJijrq0jVBsW4vxenKaVQO7RUuSYttatCIx2+28J+5qq08Ts/VpYrZi21loXQMAuHk2YYuyC04aQatry0hlF5zU3zd+b4S4r8cPdDtnSOfWim3Z2Pg+p+CU/rYxVcu27zWC2t/Ptog5rxsdVtcoX76lTnIEu8R9uR6PoWoENR9JTrMqJ69QB6xFHpfeSEnLq/B6jrXQLZDdFxejHGuhMdEgJ8/mFvYAAFcnZ9ekJL0+sJtLSHK0Yj3wwRqjjGuAim3ZWEM6t3a7zt82phplXa9bPuR5EtcyUon7crV8+16C2s9EUPOB5xem6tPEbD0xoK0O5BXp+YWpFcp8mpitA3lFxvc5eYV6foFjkkF5TSOCNWdVuj5NzNarIzrSHQoAVznXbszyASnGpQUsqYqWLtfrZBecVPK+w8Y1PXWVxpwdA+fkaMU7paXbMzSocyvC2s9AUPOBcQPaGP9uGhGsgXHRbi1lyWlWNY0IrtCi9vzCVL06oqPba8lpVq1IzNa9cTFqGsGYNZhDZIxF/YfeVGW53OwCrV6y9RLUCKg5lYWPQZ1bKebsgHxvYsLqSS0rn90ZE1ZPQzq39lqma7nre5oY4HotZ9AqX2759r1GGJPktmTIkM6ttfzspITEfblK9DBO7fe9OhpdpJJjMsL/9bpRzyZs0d83piqOJUTOG0HNB6ItIXp1REd9enbcWfk10jx1ezq5dn/O/iJNKXvy9MH4OD00K9FtIgLgS86V+StbT6xJTJgiYyzKzbKy7hgua68P7OZ1CQ5nC1NVa5xlF9StcmC964D8qpQPbhXv57m+jlYy95aymLB6Hu/t2kVa2X3jzs4EdY5Vw/khqPmQc3xabDuLnl+QqnvjYnRfXIwx27M85+zPgXHRRvkPxscpx1porLcG+Fr/obeoU1wr5WZbNXHY217Lxc8Yqv5DHdstjfjl1EqvV50wFxljUadurbRjy1516taKAIhLpqqFaN9+4EYtSB3htczA9tP1942FXhe8lRzjwVak3+f1eHT9ThrYfrrxvWv3pqeB/M6WOdeJA5KjRcw1bHnqykzcl6uYsHr6v143VmvWpqNsRyV+sMaYiIDqY8FbH2pqCTZayD4YH6cDVsd4Nedsz/Ji21qUsidPzy9I1bgB7YxuTufSHYAZjHi6r1Yv2arIGIsiY7xPbunUrZUmDnv7bDfpLZVer2O3yvfNjIyxaOG3kxQ/Y6iaxIRV6xzgUjleXHkr0oniQxf9njFh9YwQ9fezkwGcnk3YYvy7fIBzrpvm/CofxAZ3djxXztmj1W0hc21VYwHf80NQ86H74mKUvOfcTgPOsJWyJ8/j3p7PL0xVTp5Nr47s6Da7M2VPXs1XFqiGEU/frsgYi6Y/s0Q7EveqSUyY17KRMRbtSNyrhW+s0Yin+17QfTudDWUL31ijQ9kFF3Qtp8rCI3A5cK6TlrgvVz1nJajnrAS1+tMio+Xu9YHdznsds5iwesYYtKXbM/TAB2vU6k+LjK+/VdJidj5dtziHrk8fO2Atcvs+eY9Va17upecXphoTDXLybMaEAdfFbyXR7QnTiIyxaMTT/TT9mSWSpNws79uduY5fW73kO/UferPiZww1znVVWbfouXs7AuHCN9b+nKp71DHuGiY64LLmXNQ2cV+ukvcdNlqynGuqxbl1cdZTTFjlW105/b5XRw3u3ErLtu9V0tkWtfJj3jxdzxnynLskoHoIaj7m2v2ZYy00uj2dkw2eX+D468R1ooDr4rd0e8Is4mcO1Y7Evee6PZs5xp95auFytrT1H3qLVi/ZqoVvrNOIp/t6nICw8NtJWr1km1Yv+U4Lv51kvJ6bbdWIX07ViKdv14inHQO1V2dOdRsX1ymulaYtflwTh72tHYl7NW3x48rNsmrNkm1ur6/OnKrVS7Z6DIqunLNZL2YgBGqSY7ZoPY8D/12db2uXa8va+Vyv/KxQVI2uTx9z7f4s31LmbEWTZMwQdXJ2jdLtCTPoFNdKneLOdj9+O0nTF49W6hZH90rqlgwtmrnG7UuSVi/Zpn5Db9bCbyepY9w1kqThE6o/dd85ti3XJQjmZntvxXN1KLtAOxL3aviEfkYX55ol2yQ5wqNrt6cjCN7u+Dm7tVJkTLg6xbU624J4u/FzA0BNIKiZgLP7M2FLjiTH2miuEwacEw1mf5GmHGuh0f1JtyfMwhmwmsSEOVrHfjlVC99Yq4VvrFPHbq21I3Gv8dVv6M3asWWvFr6xVhOHva34Ye8qNzvfMWvTJfB5M3HY2xrxy6nKzbYa3ZML31hjtLBVZ6ZnbrZVqVsyjIkHudmOGaKd4lqp39CbFRkTpshm7hMhOsU5ZpI6X28SE6bc7ILzCpe4OtXEZAFcPej6NIGmlmBjb0/n2LTya6I9cVdbtwB3IK+Ibk+YijMoudqxxRHMnF2azlaw/s3duzAXvrFWudkFip8xtNr3utBJA6uXfGd0mTq7PPsNvVnTJyxRbrZV8THhkhzj3pxdnquXfKfULRnnwmDiXqM1EFev1wd287rA7C+a+2vdvqcV29Tz8hzHTx9W8oFF6nfD7xQd5r1LcGvunxRdv5Oi63suU78OK/5fqQhqJnBfXIzRtXlvXIzX/Tpj21oUOz7u7OzPQjWNCK6w/yfgC9MnLNHCbycZY86ccrOtWjRzjbFWWvxMzxMGpHPLelyqtc9cW9HK19lVZbssjHj69gotb7j6tGi8WS0aez6WfGChBrafrqXb/LyeH9uqndIK/qEOLTsptE7FCx0/fVgniqX9B0dq/0HP14gOq6trG/6c2sPsCGom4Nz78764GKUoTylplY87axoRLEmavSpNTS3Bui+OoAbfcrSKrTHClqsdiXu1Y8teo7XM00zKc8t6VD3D82JydrNWtovC9MWjtfrs+DVX8TOGKjc7v9LZrbg6JB9Y6PVYdP1Oyspror9trLjdktPrYd0UHbZHu47+22uZkR0XqtPH3iexxLWMrHLCAC5PBDUTcO79WX4fz8o4JxOwtyfMorJlNha+sc4xycBDa1r5ZT0upsq6R50TBnKzrRo+oZ92eNhFoVNcKy18Y512bNlboVWtU7dWxqxTAKgpTCYwAefenzV9DlCTHK1q69Spm/uEgMgYxzIdudlWjXi6b4Vg47qsR02JnzlU0xY/7lavEU/3Pbvg7jpjEsOaJduMWZ6RzSw6lF2gjnHXuC3I27Fba8divVsc3aYdu9GKAaDm0KIG4KJZvWSr+g292Wihcq5jtvCNNZp4dlD+9MWjJTkG6TsDUmV7gl6Ic12y/dy2s+o/9BbHtlNnW8skx0SChW+sk/PPn0UzHTNJc7PzlZtdoNwsqzFbtFM3R0tb/6E3Gct6AGZSWTeq07UN75AknTh9SDnHd3gsUz+wiaLrd/J6zfqBTRQaGKn6dZpU6/6u10P1+NntdruvK+HJT9lWRTVu4OtqVOmhWYnVLvvqyI4VBv5/mpjttoCtpzKSY8mOOav2eLxudESIsYuBt3NXJGYrJ6/itlSuxg1o53Uig5kcPHxM11Syh+TVwJfPh+uMTU+c+26uXrJVnbq10vQJS9zGfzkH5/cferMOnQ1AlXV7RsZYlJttNYKWc7C/8/Xy//b2vVNV17pYVmde2vF2Tjwfl/75mL3V+xIt0fU7qUngRD3wQSVj1AZ2U3jYp1WPUXut8jFqHz10rh4LUkfoxOnKlwV54pY1WrdveqX3vbbhHerbMl45J3YoYXe8xzL16zTRdQ37qUvTkZIcwa+yTejr12mivtfE+ySwXY7PBy1qFyg57cL+c5+zKt1tX8/kPVaPkwNy8gq93+vs67NXpem+uBiNG9DGCGzJadZqh8lx51l3wJPcbKtWL9lqjAGbtvhxr2UjYywaMaHysWnOAFU+SLl+X9mxn/M9cLmLbTpcJ047tnf639E1OnH6kMflPZwhzdvSH56W/XAuNeKYjXpIOSd2KPnAQh0/fVh9W8Z7LOssn3N8h06cPqR1P03XyI7eJ2HgHILaBXpigPs6ZglbcowlM5zbQTmVb+3KsRZW2Hx9xdnZn5WJbWtxW+g2ZU+eEeI+TcxW04hgY30119a62LYWo/XNk+iIoErvC1TXwjfWKTXxpyrL7diyl5CEK1r9wCZVF6oBzm5NyRGQdh09pOj6HY1WL8m9e3Jg++nVvrbrNSQpYbejxc1T92n5sikHFij5wMIqW/twDkHtApVfcNa5u4CnY+XNWZVu/Du2rUXJaVYlp1mrXBvt3rgY9zB3V1vN/iJNs1elSXK0rA2Mc4RE5/ps0ZaQCovoAjXF0apGAMPV4YlbvHdrSlJ2wUm3bsnyHJujx1dojSrv6/EDK2x+7hQTVrfKepbnGiJTDixQU5euSE/jzrzp0nSEcnY7WsrKB7Dy3+eccOxf7RokUTmCmo/kWAvdQtS4Ae2UfLaLcs6q9POe0fnEXW2N1jxJysmzuY03c7besTguAFxczyZsUXbBSY/HuraM1ODOrfT3janeL9Cro7ILTmr5du+LPX/0UD/9feP3ld7nfDc7Dw2MVHT9TkbXpeTeFVm/ThPdd+20KgNbaOC57tHjxblu33saq1a/TpMqQynOIaj5SELiuZa3gd2iHd2SlhAjwLmOM6uu2HYWfZroDGqFkss1JanfixuN7k+nphHB6tI2QtERQYQ4APgZlm7PqPR415aRStyX6/X4oIKTSt53uNIy2QUnq7zP+XIO6s85vkM5J783XneOOztx+pA+3TXxvMaSuYY0SRUmDOSccHSPphxYUKFbFJ4R1HzE2U0ZbQkxukgHdos2Xv85+3i6jj1zbvT+wdOxeuiNZCOsJadZjckH56Q5ukafjiWsAcBVpH6dJrq2YZMKXZG7jv5b6/ZNdyzdccLz0h1O3pb2kCqOfXPOMv3f0TUEtWoiqPnA7C/SjH/HtrMYEwG6tI2QdDaobcnxutzG+Yi2hGjNy72Mex7IKzKO5eQVKifPZnSL/pwuVwDAlce1hS00MFLHiz239p04fUjJBxZJcoS++nWaVDpR4ETxIeM8VA9BzQdcJxx8mphtjFVzlWMt9LpUhzcpe87tEeoIfed4a51znYRQ1TprAIAri6cxZK4h6tqGd6h+nSZuQc15Tvmw1feaiuPOXK9f/rqoHoLaJeZpSQ5vqrNUh+t1XddZq+7CtQPjol2Cmq1a5wAArgzeWrbKL2Lr6RzXSQaxTYd7XMC2/PXr12mi6NBOTCY4DwS1S8x1EsETA9pWaOnKsRYaY8q8LdWxtdwYswPWIiNsSe7rtSWnWb22lB2wFrm1wsW2u7xWa4ZvdIpr5bbTACpyLvYLmEHflt6X/qhqaRGn6Pqdql22fp0m1S6LqhHULqEca6FboHKudeYq2hLiNnvT06QCb92lzvNfHXlunNmKSsqWd281W+9wdYufOVSrl2xT6hbCmicdu7XSiKe9r5mFK09MWD2vy2bEhNWr1jViWzauclbnxbgPLj8EtUvItTUt2hLidaLAvXExRrhyXbzWm2hLiKIjgtSlXcR5T0BwBsN742Iui30+4XuRMRZHEHna1zUBzOHr8QOrLLP3T8OrLDOkc+sLvg+uPGzKjsvO5bip7sXG8wFveD54PuDd5fh8+Pu6AgAAAPCMoAYAAGBSBDUAAACTIqgBAACYFEENAADApAhqAAAAJkVQAwAAMCmCGgAAgEkR1AAAAEyKoAYAAGBSBDUAAACTMm1QCwjwV0lJqa+rAZMpKSlVQIBp37aXDM8HPOH5cOD5gCeX6/NRy9cV8CY8NFj5xwtVWlrm66rARAIC/BUeGuzravgczwc84flw4PmAJ5fr8+Fnt9vtvq4EAAAAKrr82gABAACuEgQ1AAAAkyKoAQAAmBRBDQAAwKQIagAAACZFUAMAADApgtoVaMbMWVq6bLmvqwH8bNb8fA27/0H16tNP69dv0GOPj5M1P9/X1QKAS46g9jMtXbZcjSKjK3wNu/9BWfPzPR5PTk7xdbUBn7Dm5+uxx8cpPT2jWuXXr9+grrFdtHH9GjVv3vyC75+cnFLheSz/x4wzHPLM4kri6b3fKDJavfr0M55H18+r+ImTZLPZKrzu7Zkof33nZyAuHoLazzRk8CAdyc1R1v4MjRo5XKtWJuhIbo7MwsPZAAAHWUlEQVQWf/KhLOHhkqTJkybqSG6OUW7xkqWaMXNWjdftmQnjNWTwoBq/D1BT9u/P1K09ul/Ua44aOVxZ+zOMZ3L//ky3DyVJCmvQQFs2f60juTnasvlrTZ/xRrXDJWBGsbFdjPf85EkTNXfOmzqSm6ON69eoTZvWWrpsuRITk4xnY9jQIUpN/d44vzqfY67P1rChg/Xaa1PcnitcGILaJRIUFKRXXv6zDh48yF/pgAk8M2G8oqKi9PmqLzwet0RYFBYWdolrBVxa+/dnatjQIQoKCpLkCHaxsV08lq3O51jzZs1qrK5XK4LaJRQUFKS4uK76ZtNmSZLNZlP8xElGk7HrXykzZs7SgoWLjOOuzdTO487z5r39rlu3kusYtaXLlmvGzFlu5V0fMNdm6/L3AGqKt/e385mYMnWaBtwzUPETJ6m4uNg4Lz09w228mrN8cnKK0XXpfO+np2eoV59+lf5hdGuP7kpMTPL41396WrpCQ+srJib6Iv/0uJqV72J3bdV1vr+//OrfHo97+8xwDi348qt/q1effhXOq0yLFs21eMnSareAlf8cK++bTZsVF9fVCH64cAS1S6x5s2Y6ePCgbDabZs+Zp2FDhxjNypLcxs388/35GvP4YzqSm6N77h6gFZ+tNMocPHjQaGpu2DBCe9LSvN5zytRpurVHdx3JzdHcOW8aD2V6eoa+/OrfxnXee2eeXp82g/EFuCQ8vb+DgoI0fdpUTZ40UatWJmj6tKkKDAys1vUs4eF67ZW/aPXqtbLm52vFZyv1+pTXvLYOSJLFYtHx4ydUWFQkSSo4dkzduvdUo8hoDbhnoFtLA3ChrPn5GjP2ScVPGG/8vx8VFaXZc+YZZfakpenHH//n8XhlnxkFx45p3br1+uqLldq96wdlZmW7dWF6c/eAuyRJzVq0rvYkNNfPMUmav2CRmrVorUaR0UpKTlGfPr2r/0tBlQhql1hmVpaioqJUWFSkpOQUDbhnoPHX0ZSp07R/f6ZR9sknxqpNm9aSHH/5Hzx4UAUFBUpMTHL7AOnTp7fatW3r9Z6TJ000Pqw6d+pkfDBt37FDb82eazxg3br31J60NFnzrDX4GwAcPL2/L3RcS5s2rdW//+1qf20HSao0pEmS1WpVaGh9hQQHS3Ifo+Ycj8MMalws6Wnpat4sRh073mi8du+v79Hu3XuMP5DbtW2rhx8e5Xb85MmTOnjoUKWfGWENGmjM448pKChIlvBwdY3tosysrCrr5PzjaPeuH7R4ybJq9aw4P8ecn0GuY9Ree+UvGjPmCXpnLqJavq7A1cRmsxkhSzr3oeD8sPKFyZMm6pkJ4312f8CXXLtpnK1qTs4uHtc/noBLzWq16sSJE5K8f2ZcjF4QS3i4Fn/yoZYuW64Vn630+rlQ/nOsvJiYaDVv3kxWq1WS7z7briS0qF0iNptNL7z4kqKiohQb20WW8HC1b9/O6M6UpC+/+neVf4UEBQUpKirKbUzB+vUbKu369KZzp05KSko27mnNz9fCRR+e93WAS8USYVHBsWNKT0uXJKWmfq/5CxYZx9PTM7R69Vrt+O/W/2/nblaiCsMAjj/t3CpETmGz8OsKMu+hZeoqikhk0lxEISIR9IlmRtdRbapFtbFFBWZ3kLYx42x0KbizhXhwzI/Qwkf5/dbDcBZn5vnP+75z9vzjztSz51EURbn1s9XGQKpWD/54EIiIaGtv+2NL8vWbt9HZ2VE+LeD73FxMT3+MiPV78MXLV9HdfT4qzc37mhm7WV1djXv3H/71e2ydY9tZXPwVCws/o6mpad/XRT2h9h+NT0yWS9Qt1dbo6+2p+5UyNFiLoijK16ysrPzV6trQYC0iotyyXFpa3nXrcydtba1x+9bN8kxO7fqNuLDD0IIMmhobo6/3Yrn98+79h7hy+VJErEda/0At+q9djdOnK9HX2xMjo2PlENp8jubkqTNRrZ6Np5MTdWfQNp9Ra6m2Rnf3eY+64Z/ZOEc5MjpW3ocRUTcXOtrbY2lpubwHK5VKeQ/ud2bspKGhIYaHh2Lszt3yPWdmvpYzJmLvORZR/9nqH6jF40cPDnWn6Lg5sba2tnbYF8HBzM//iCeTUzE+/qj8VQbA0eK7nO1YUTuCZme/1W3pbF06BwCOB6F2BHV1nYtPn7+Uy9FFUdQtVQMAx4OtTwCApKyoAQAkJdQAAJISagAASQk1AICkhBoAQFJCDQAgKaEGAJCUUAMASEqoAQAkJdQAAJISagAASQk1AICkhBoAQFJCDQAgKaEGAJCUUAMASEqoAQAkJdQAAJISagAASQk1AICkhBoAQFJCDQAgKaEGAJCUUAMASEqoAQAkJdQAAJISagAASQk1AICkhBoAQFJCDQAgKaEGAJCUUAMASEqoAQAkJdQAAJISagAASQk1AICkhBoAQFJCDQAgKaEGAJCUUAMASEqoAQAkJdQAAJISagAASQk1AICkhBoAQFJCDQAgKaEGAJCUUAMASEqoAQAkJdQAAJL6DUp+bvyegMj7AAAAAElFTkSuQmCC;" parent="HZPbMIjPk6rG7j14ESul-6" vertex="1">
          <mxGeometry x="70" y="40" width="348.93" height="520" as="geometry" />
        </mxCell>
        <mxCell id="HZPbMIjPk6rG7j14ESul-14" value="" style="group" parent="1" vertex="1" connectable="0">
          <mxGeometry x="510" y="170" width="460" height="490" as="geometry" />
        </mxCell>
        <mxCell id="HZPbMIjPk6rG7j14ESul-7" value="" style="rounded=0;whiteSpace=wrap;html=1;" parent="HZPbMIjPk6rG7j14ESul-14" vertex="1">
          <mxGeometry width="460" height="490" as="geometry" />
        </mxCell>
        <mxCell id="HZPbMIjPk6rG7j14ESul-8" value="&lt;font style=&quot;font-size: 24px;&quot;&gt;数据集成&lt;/font&gt;" style="text;html=1;strokeColor=none;fillColor=none;align=center;verticalAlign=middle;whiteSpace=wrap;rounded=0;" parent="HZPbMIjPk6rG7j14ESul-14" vertex="1">
          <mxGeometry x="10" y="10" width="110" height="30" as="geometry" />
        </mxCell>
        <mxCell id="HZPbMIjPk6rG7j14ESul-10" value="&lt;div style=&quot;text-align: justify;&quot;&gt;&lt;span style=&quot;background-color: initial;&quot;&gt;实时采集&lt;br&gt;&lt;/span&gt;&lt;/div&gt;&lt;div style=&quot;text-align: justify; font-size: 16px;&quot;&gt;&lt;font style=&quot;font-size: 16px;&quot;&gt;富文本文件：ssh协议、ftp协议、http协议----&amp;gt;es&lt;br&gt;普通文本文件：ftp协议、文件上传、服务器目录----&amp;gt;kafka&lt;/font&gt;&lt;/div&gt;&lt;div style=&quot;text-align: justify; font-size: 16px;&quot;&gt;&lt;font style=&quot;font-size: 16px;&quot;&gt;通过协议获取：syslog、http、mqtt、restful api----&amp;gt;kafka&lt;/font&gt;&lt;/div&gt;&lt;div style=&quot;text-align: justify; font-size: 16px;&quot;&gt;&lt;font style=&quot;font-size: 16px;&quot;&gt;消息队列：kafka----&amp;gt;kafka&lt;/font&gt;&lt;/div&gt;" style="rounded=1;whiteSpace=wrap;html=1;fontSize=24;align=left;" parent="HZPbMIjPk6rG7j14ESul-14" vertex="1">
          <mxGeometry x="20" y="50" width="420" height="120" as="geometry" />
        </mxCell>
        <mxCell id="HZPbMIjPk6rG7j14ESul-12" value="&lt;font style=&quot;&quot;&gt;&lt;span style=&quot;font-size: 24px;&quot;&gt;CDC同步&lt;/span&gt;&lt;br&gt;&lt;font style=&quot;font-size: 16px;&quot;&gt;MySQL/Oracle/SQL Server----&amp;gt;Dipper/ES&lt;/font&gt;&lt;br&gt;&lt;/font&gt;" style="rounded=1;whiteSpace=wrap;html=1;fontSize=16;align=left;" parent="HZPbMIjPk6rG7j14ESul-14" vertex="1">
          <mxGeometry x="20" y="180" width="419.5" height="70" as="geometry" />
        </mxCell>
        <mxCell id="HZPbMIjPk6rG7j14ESul-13" value="&lt;font style=&quot;&quot;&gt;&lt;font style=&quot;font-size: 24px;&quot;&gt;离线同步&lt;/font&gt;&lt;br&gt;MySQL----&amp;gt;ES\Dipper\Hive\HDFS\Kafka&lt;br&gt;Oracle----&amp;gt;ES\Dipper\Hive\HDFS\Kafka&lt;br&gt;PostgreSQL----&amp;gt;Dipper\Hive\HDFS\Kafka&lt;br&gt;SQLServer----&amp;gt;Dipper\Hive\HDFS\Kafka&lt;br&gt;Dipper----&amp;gt;MySQL\Oracle&lt;br&gt;kafka----&amp;gt;Hbase\Dipper\Hive&lt;br&gt;TDengine----&amp;gt;Dipper\Hive\Kafka&lt;br&gt;InfluxDB----&amp;gt;Dipper\Hive\Kafka&lt;br&gt;openTSDB----&amp;gt;Dipper\Hive\Kafka&lt;br&gt;&lt;/font&gt;" style="rounded=1;whiteSpace=wrap;html=1;fontSize=16;align=left;" parent="HZPbMIjPk6rG7j14ESul-14" vertex="1">
          <mxGeometry x="20" y="260" width="420" height="220" as="geometry" />
        </mxCell>
      </root>
    </mxGraphModel>
  </diagram>
</mxfile>
